<svg xmlns="http://www.w3.org/2000/svg" xmlns:xlink="http://www.w3.org/1999/xlink" viewBox="0 0 616.65 159.39">
  <defs>
    <linearGradient id="Degradado_sin_nombre_1456" data-name="Degradado sin nombre 1456" x1="108.53" y1="135.73" x2="678.18" y2="135.73" gradientUnits="userSpaceOnUse">
      <stop offset="0" stop-color="#e6e6e5"/>
      <stop offset="1" stop-color="#ccc"/>
    </linearGradient>
    <linearGradient id="linear-gradient" x1="107.61" y1="134.71" x2="677.26" y2="134.71" gradientUnits="userSpaceOnUse">
      <stop offset="0" stop-color="#e2e2e1"/>
      <stop offset="1" stop-color="#c9c9c9"/>
    </linearGradient>
    <linearGradient id="linear-gradient-2" x1="106.69" y1="133.69" x2="676.34" y2="133.69" gradientUnits="userSpaceOnUse">
      <stop offset="0" stop-color="#dfdfdf"/>
      <stop offset="1" stop-color="#c7c7c7"/>
    </linearGradient>
    <linearGradient id="linear-gradient-3" x1="105.77" y1="132.67" x2="675.41" y2="132.67" gradientUnits="userSpaceOnUse">
      <stop offset="0" stop-color="#dcdcdc"/>
      <stop offset="1" stop-color="#c5c5c5"/>
    </linearGradient>
    <linearGradient id="linear-gradient-4" x1="104.85" y1="131.65" x2="674.49" y2="131.65" gradientUnits="userSpaceOnUse">
      <stop offset="0" stop-color="#dadada"/>
      <stop offset="1" stop-color="#c3c4c4"/>
    </linearGradient>
    <linearGradient id="linear-gradient-5" x1="103.93" y1="130.63" x2="673.57" y2="130.63" gradientUnits="userSpaceOnUse">
      <stop offset="0" stop-color="#d7d8d8"/>
      <stop offset="1" stop-color="#c2c2c2"/>
    </linearGradient>
    <linearGradient id="linear-gradient-6" x1="103" y1="129.61" x2="672.65" y2="129.61" gradientUnits="userSpaceOnUse">
      <stop offset="0" stop-color="#d5d5d6"/>
      <stop offset="1" stop-color="#c0c1c1"/>
    </linearGradient>
    <linearGradient id="linear-gradient-7" x1="102.08" y1="128.59" x2="671.73" y2="128.59" gradientUnits="userSpaceOnUse">
      <stop offset="0" stop-color="#d2d3d3"/>
      <stop offset="1" stop-color="#bebfbf"/>
    </linearGradient>
    <linearGradient id="linear-gradient-8" x1="101.16" y1="127.57" x2="670.81" y2="127.57" gradientUnits="userSpaceOnUse">
      <stop offset="0" stop-color="#d0d0d1"/>
      <stop offset="1" stop-color="#bdbdbd"/>
    </linearGradient>
    <linearGradient id="linear-gradient-9" x1="100.24" y1="126.55" x2="669.89" y2="126.55" gradientUnits="userSpaceOnUse">
      <stop offset="0" stop-color="#cdcecf"/>
      <stop offset="1" stop-color="#bbbcbc"/>
    </linearGradient>
    <linearGradient id="linear-gradient-10" x1="99.32" y1="125.53" x2="668.96" y2="125.53" gradientUnits="userSpaceOnUse">
      <stop offset="0" stop-color="#cbcccc"/>
      <stop offset="1" stop-color="#b9baba"/>
    </linearGradient>
    <linearGradient id="linear-gradient-11" x1="98.4" y1="124.51" x2="668.04" y2="124.51" gradientUnits="userSpaceOnUse">
      <stop offset="0" stop-color="#c8c9ca"/>
      <stop offset="1" stop-color="#b7b8b9"/>
    </linearGradient>
    <linearGradient id="linear-gradient-12" x1="97.47" y1="123.49" x2="667.12" y2="123.49" gradientUnits="userSpaceOnUse">
      <stop offset="0" stop-color="#c6c7c8"/>
      <stop offset="1" stop-color="#b5b6b7"/>
    </linearGradient>
    <linearGradient id="linear-gradient-13" x1="96.55" y1="122.47" x2="666.2" y2="122.47" gradientUnits="userSpaceOnUse">
      <stop offset="0" stop-color="#c3c4c5"/>
      <stop offset="1" stop-color="#b4b5b5"/>
    </linearGradient>
    <linearGradient id="linear-gradient-14" x1="95.63" y1="121.45" x2="665.28" y2="121.45" gradientUnits="userSpaceOnUse">
      <stop offset="0" stop-color="#c1c2c3"/>
      <stop offset="1" stop-color="#b2b3b3"/>
    </linearGradient>
    <linearGradient id="linear-gradient-15" x1="94.71" y1="120.43" x2="664.36" y2="120.43" gradientUnits="userSpaceOnUse">
      <stop offset="0" stop-color="#bebfc0"/>
      <stop offset="1" stop-color="#b0b1b2"/>
    </linearGradient>
    <linearGradient id="linear-gradient-16" x1="93.79" y1="119.41" x2="663.43" y2="119.41" gradientUnits="userSpaceOnUse">
      <stop offset="0" stop-color="#bcbdbe"/>
      <stop offset="1" stop-color="#aeafb0"/>
    </linearGradient>
    <linearGradient id="linear-gradient-17" x1="92.87" y1="118.39" x2="662.51" y2="118.39" gradientUnits="userSpaceOnUse">
      <stop offset="0" stop-color="#b9babc"/>
      <stop offset="1" stop-color="#acadae"/>
    </linearGradient>
    <linearGradient id="linear-gradient-18" x1="91.95" y1="117.37" x2="661.59" y2="117.37" gradientUnits="userSpaceOnUse">
      <stop offset="0" stop-color="#b6b8b9"/>
      <stop offset="1" stop-color="#aaabac"/>
    </linearGradient>
    <linearGradient id="linear-gradient-19" x1="91.02" y1="116.35" x2="660.67" y2="116.35" gradientUnits="userSpaceOnUse">
      <stop offset="0" stop-color="#b4b5b6"/>
      <stop offset="1" stop-color="#a8a9aa"/>
    </linearGradient>
    <linearGradient id="linear-gradient-20" x1="90.1" y1="115.33" x2="659.75" y2="115.33" gradientUnits="userSpaceOnUse">
      <stop offset="0" stop-color="#b1b2b4"/>
      <stop offset="1" stop-color="#a6a7a8"/>
    </linearGradient>
    <linearGradient id="linear-gradient-21" x1="89.18" y1="114.31" x2="658.83" y2="114.31" gradientUnits="userSpaceOnUse">
      <stop offset="0" stop-color="#aeb0b1"/>
      <stop offset="1" stop-color="#a4a5a6"/>
    </linearGradient>
    <linearGradient id="linear-gradient-22" x1="88.26" y1="113.29" x2="657.9" y2="113.29" gradientUnits="userSpaceOnUse">
      <stop offset="0" stop-color="#acadaf"/>
      <stop offset="1" stop-color="#a1a3a4"/>
    </linearGradient>
    <linearGradient id="linear-gradient-23" x1="87.34" y1="112.27" x2="656.98" y2="112.27" gradientUnits="userSpaceOnUse">
      <stop offset="0" stop-color="#a9aaac"/>
      <stop offset="1" stop-color="#9fa1a2"/>
    </linearGradient>
    <linearGradient id="linear-gradient-24" x1="86.42" y1="111.26" x2="656.06" y2="111.26" gradientUnits="userSpaceOnUse">
      <stop offset="0" stop-color="#a6a8aa"/>
      <stop offset="1" stop-color="#9d9ea0"/>
    </linearGradient>
    <linearGradient id="linear-gradient-25" x1="85.49" y1="110.24" x2="655.14" y2="110.24" gradientUnits="userSpaceOnUse">
      <stop offset="0" stop-color="#a4a5a7"/>
      <stop offset="1" stop-color="#9b9c9e"/>
    </linearGradient>
    <linearGradient id="linear-gradient-26" x1="84.57" y1="109.22" x2="654.22" y2="109.22" gradientUnits="userSpaceOnUse">
      <stop offset="0" stop-color="#a1a3a5"/>
      <stop offset="1" stop-color="#999a9c"/>
    </linearGradient>
    <linearGradient id="linear-gradient-27" x1="83.65" y1="108.2" x2="653.3" y2="108.2" gradientUnits="userSpaceOnUse">
      <stop offset="0" stop-color="#9fa0a2"/>
      <stop offset="1" stop-color="#97989a"/>
    </linearGradient>
    <linearGradient id="linear-gradient-28" x1="82.73" y1="107.18" x2="652.38" y2="107.18" gradientUnits="userSpaceOnUse">
      <stop offset="0" stop-color="#9c9d9f"/>
      <stop offset="1" stop-color="#959697"/>
    </linearGradient>
    <linearGradient id="linear-gradient-29" x1="81.81" y1="106.16" x2="651.45" y2="106.16" gradientUnits="userSpaceOnUse">
      <stop offset="0" stop-color="#999b9d"/>
      <stop offset="1" stop-color="#929495"/>
    </linearGradient>
    <linearGradient id="linear-gradient-30" x1="80.89" y1="105.14" x2="650.53" y2="105.14" gradientUnits="userSpaceOnUse">
      <stop offset="0" stop-color="#97989a"/>
      <stop offset="1" stop-color="#909193"/>
    </linearGradient>
    <linearGradient id="linear-gradient-31" x1="79.97" y1="104.12" x2="649.61" y2="104.12" gradientUnits="userSpaceOnUse">
      <stop offset="0" stop-color="#949698"/>
      <stop offset="1" stop-color="#8e8f91"/>
    </linearGradient>
    <linearGradient id="linear-gradient-32" x1="79.04" y1="103.1" x2="648.69" y2="103.1" gradientUnits="userSpaceOnUse">
      <stop offset="0" stop-color="#929395"/>
      <stop offset="1" stop-color="#8c8d8f"/>
    </linearGradient>
    <linearGradient id="linear-gradient-33" x1="78.12" y1="102.08" x2="647.77" y2="102.08" gradientUnits="userSpaceOnUse">
      <stop offset="0" stop-color="#8f9193"/>
      <stop offset="1" stop-color="#8a8b8d"/>
    </linearGradient>
    <linearGradient id="linear-gradient-34" x1="77.2" y1="101.06" x2="646.85" y2="101.06" gradientUnits="userSpaceOnUse">
      <stop offset="0" stop-color="#8c8e90"/>
      <stop offset="1" stop-color="#87898b"/>
    </linearGradient>
    <linearGradient id="linear-gradient-35" x1="76.28" y1="100.04" x2="645.92" y2="100.04" gradientUnits="userSpaceOnUse">
      <stop offset="0" stop-color="#8a8c8e"/>
      <stop offset="1" stop-color="#858788"/>
    </linearGradient>
    <linearGradient id="linear-gradient-36" x1="75.36" y1="99.02" x2="645" y2="99.02" gradientUnits="userSpaceOnUse">
      <stop offset="0" stop-color="#87898b"/>
      <stop offset="1" stop-color="#838486"/>
    </linearGradient>
    <linearGradient id="linear-gradient-37" x1="74.44" y1="98" x2="644.08" y2="98" gradientUnits="userSpaceOnUse">
      <stop offset="0" stop-color="#858689"/>
      <stop offset="1" stop-color="#818284"/>
    </linearGradient>
    <linearGradient id="linear-gradient-38" x1="73.51" y1="96.98" x2="643.16" y2="96.98" gradientUnits="userSpaceOnUse">
      <stop offset="0" stop-color="#828486"/>
      <stop offset="1" stop-color="#7f8082"/>
    </linearGradient>
    <linearGradient id="linear-gradient-39" x1="72.59" y1="95.96" x2="642.24" y2="95.96" gradientUnits="userSpaceOnUse">
      <stop offset="0" stop-color="#808184"/>
      <stop offset="1" stop-color="#7d7e80"/>
    </linearGradient>
    <linearGradient id="linear-gradient-40" x1="71.67" y1="94.94" x2="641.32" y2="94.94" gradientUnits="userSpaceOnUse">
      <stop offset="0" stop-color="#7d7f81"/>
      <stop offset="1" stop-color="#7a7b7d"/>
    </linearGradient>
    <linearGradient id="linear-gradient-41" x1="70.75" y1="93.92" x2="640.39" y2="93.92" gradientUnits="userSpaceOnUse">
      <stop offset="0" stop-color="#7b7c7f"/>
      <stop offset="1" stop-color="#78797b"/>
    </linearGradient>
    <linearGradient id="linear-gradient-42" x1="69.83" y1="92.9" x2="639.47" y2="92.9" gradientUnits="userSpaceOnUse">
      <stop offset="0" stop-color="#787a7c"/>
      <stop offset="1" stop-color="#767779"/>
    </linearGradient>
    <linearGradient id="linear-gradient-43" x1="68.91" y1="91.88" x2="638.55" y2="91.88" gradientUnits="userSpaceOnUse">
      <stop offset="0" stop-color="#76777a"/>
      <stop offset="1" stop-color="#747577"/>
    </linearGradient>
    <linearGradient id="linear-gradient-44" x1="67.98" y1="90.86" x2="637.63" y2="90.86" gradientUnits="userSpaceOnUse">
      <stop offset="0" stop-color="#737577"/>
      <stop offset="1" stop-color="#717275"/>
    </linearGradient>
    <linearGradient id="linear-gradient-45" x1="67.06" y1="89.84" x2="636.71" y2="89.84" gradientUnits="userSpaceOnUse">
      <stop offset="0" stop-color="#717274"/>
      <stop offset="1" stop-color="#6f7072"/>
    </linearGradient>
    <linearGradient id="linear-gradient-46" x1="66.14" y1="88.82" x2="635.79" y2="88.82" gradientUnits="userSpaceOnUse">
      <stop offset="0" stop-color="#6e7072"/>
      <stop offset="1" stop-color="#6d6e70"/>
    </linearGradient>
    <linearGradient id="linear-gradient-47" x1="65.22" y1="87.8" x2="634.87" y2="87.8" gradientUnits="userSpaceOnUse">
      <stop offset="0" stop-color="#6c6d6f"/>
      <stop offset="1" stop-color="#6a6b6d"/>
    </linearGradient>
    <linearGradient id="linear-gradient-48" x1="64.3" y1="86.78" x2="633.94" y2="86.78" gradientUnits="userSpaceOnUse">
      <stop offset="0" stop-color="#696a6c"/>
      <stop offset="1" stop-color="#68696b"/>
    </linearGradient>
    <linearGradient id="linear-gradient-49" x1="63.38" y1="85.77" x2="633.02" y2="85.77" gradientUnits="userSpaceOnUse">
      <stop offset="0" stop-color="#66676a"/>
      <stop offset="1" stop-color="#656769"/>
    </linearGradient>
    <linearGradient id="linear-gradient-50" x1="62.46" y1="84.75" x2="632.1" y2="84.75" gradientUnits="userSpaceOnUse">
      <stop offset="0" stop-color="#636567"/>
      <stop offset="1" stop-color="#636466"/>
    </linearGradient>
    <linearGradient id="Degradado_sin_nombre_9" data-name="Degradado sin nombre 9" x1="500.71" y1="-76.29" x2="182.17" y2="242.25" gradientUnits="userSpaceOnUse">
      <stop offset="0" stop-color="#fff"/>
      <stop offset="0.52" stop-color="#fdfdfd"/>
      <stop offset="0.77" stop-color="#f6f6f5"/>
      <stop offset="0.97" stop-color="#e9e9e8"/>
      <stop offset="1" stop-color="#e6e6e5"/>
    </linearGradient>
  </defs>
  <title>google</title>
  <g style="isolation: isolate">
    <g id="Layer_1" data-name="Layer 1">
      <g opacity="0.49" style="mix-blend-mode: multiply">
        <path d="M653.56,82.43H133.15a24.62,24.62,0,0,0-24.62,24.41v57.84A24.34,24.34,0,0,0,132.87,189h106.4a12.32,12.32,0,0,0,1.5-.1H653.56a24.62,24.62,0,0,0,24.62-24.62V107.05A24.62,24.62,0,0,0,653.56,82.43Z" transform="translate(-61.53 -29.64)" opacity="0" fill="url(#Degradado_sin_nombre_1456)"/>
        <path d="M652.64,81.41H132.23a24.77,24.77,0,0,0-6.19.79,24.41,24.41,0,0,0-18.43,23.62v57.84A24.34,24.34,0,0,0,132,188h106.4a12.32,12.32,0,0,0,1.5-.1H652.64a24.63,24.63,0,0,0,24.62-24.62V106A24.62,24.62,0,0,0,652.64,81.41Z" transform="translate(-61.53 -29.64)" opacity="0.02" fill="url(#linear-gradient)"/>
        <path d="M651.72,80.39H131.31a24.77,24.77,0,0,0-6.19.79,24.4,24.4,0,0,0-18.43,23.62v57.84A24.34,24.34,0,0,0,131,187h106.4a12.46,12.46,0,0,0,1.5-.1H651.72a24.63,24.63,0,0,0,24.62-24.62V105A24.62,24.62,0,0,0,651.72,80.39Z" transform="translate(-61.53 -29.64)" opacity="0.04" fill="url(#linear-gradient-2)"/>
        <path d="M650.79,79.37H130.39a24.77,24.77,0,0,0-6.19.79,24.4,24.4,0,0,0-18.43,23.62v57.84A24.34,24.34,0,0,0,130.11,186h106.4a12.29,12.29,0,0,0,1.49-.1H650.79a24.62,24.62,0,0,0,24.62-24.62V104A24.62,24.62,0,0,0,650.79,79.37Z" transform="translate(-61.53 -29.64)" opacity="0.06" fill="url(#linear-gradient-3)"/>
        <path d="M649.87,78.35H129.47a24.9,24.9,0,0,0-6.2.79,24.4,24.4,0,0,0-18.42,23.62V160.6a24.33,24.33,0,0,0,24.33,24.34h106.4a12.32,12.32,0,0,0,1.5-.1H649.87a24.62,24.62,0,0,0,24.62-24.62V103A24.62,24.62,0,0,0,649.87,78.35Z" transform="translate(-61.53 -29.64)" opacity="0.08" fill="url(#linear-gradient-4)"/>
        <path d="M649,77.33H128.55a24.84,24.84,0,0,0-6.2.79,24.4,24.4,0,0,0-18.42,23.62v57.84a24.34,24.34,0,0,0,24.33,24.35h106.4a12.31,12.31,0,0,0,1.5-.11H649a24.62,24.62,0,0,0,24.62-24.62V102A24.62,24.62,0,0,0,649,77.33Z" transform="translate(-61.53 -29.64)" opacity="0.1" fill="url(#linear-gradient-5)"/>
        <path d="M648,76.31H127.63a24.84,24.84,0,0,0-6.2.79A24.41,24.41,0,0,0,103,100.72v57.84a24.35,24.35,0,0,0,24.34,24.35h106.4a12.31,12.31,0,0,0,1.5-.11H648a24.62,24.62,0,0,0,24.62-24.62V100.93A24.62,24.62,0,0,0,648,76.31Z" transform="translate(-61.53 -29.64)" opacity="0.12" fill="url(#linear-gradient-6)"/>
        <path d="M647.11,75.29H126.7a24.77,24.77,0,0,0-6.19.79A24.41,24.41,0,0,0,102.08,99.7v57.84a24.35,24.35,0,0,0,24.34,24.35h106.4a12.31,12.31,0,0,0,1.5-.11H647.11a24.62,24.62,0,0,0,24.62-24.62V99.91A24.62,24.62,0,0,0,647.11,75.29Z" transform="translate(-61.53 -29.64)" opacity="0.14" fill="url(#linear-gradient-7)"/>
        <path d="M646.19,74.27H125.78a24.77,24.77,0,0,0-6.19.79,24.41,24.41,0,0,0-18.43,23.62v57.84a24.35,24.35,0,0,0,24.34,24.35H231.9a12.46,12.46,0,0,0,1.5-.11H646.19a24.62,24.62,0,0,0,24.62-24.62V98.89A24.62,24.62,0,0,0,646.19,74.27Z" transform="translate(-61.53 -29.64)" opacity="0.16" fill="url(#linear-gradient-8)"/>
        <path d="M645.26,73.25H124.86a24.77,24.77,0,0,0-6.19.79,24.4,24.4,0,0,0-18.43,23.62V155.5a24.35,24.35,0,0,0,24.34,24.35H231a12.46,12.46,0,0,0,1.5-.11H645.26a24.63,24.63,0,0,0,24.63-24.62V97.87A24.63,24.63,0,0,0,645.26,73.25Z" transform="translate(-61.53 -29.64)" opacity="0.18" fill="url(#linear-gradient-9)"/>
        <path d="M644.34,72.23H123.94a25.38,25.38,0,0,0-6.2.79A24.4,24.4,0,0,0,99.32,96.64v57.84a24.34,24.34,0,0,0,24.34,24.35H230.05a12.31,12.31,0,0,0,1.5-.11H644.34A24.62,24.62,0,0,0,669,154.1V96.85A24.62,24.62,0,0,0,644.34,72.23Z" transform="translate(-61.53 -29.64)" opacity="0.2" fill="url(#linear-gradient-10)"/>
        <path d="M643.42,71.21H123a25.32,25.32,0,0,0-6.2.79A24.4,24.4,0,0,0,98.4,95.62v57.84a24.34,24.34,0,0,0,24.33,24.35h106.4a12.31,12.31,0,0,0,1.5-.11H643.42A24.62,24.62,0,0,0,668,153.08V95.83A24.62,24.62,0,0,0,643.42,71.21Z" transform="translate(-61.53 -29.64)" opacity="0.22" fill="url(#linear-gradient-11)"/>
        <path d="M642.5,70.19H122.1a25.32,25.32,0,0,0-6.2.79A24.41,24.41,0,0,0,97.47,94.6v57.84a24.35,24.35,0,0,0,24.34,24.35h106.4a12.31,12.31,0,0,0,1.5-.11H642.5a24.62,24.62,0,0,0,24.62-24.62V94.81A24.62,24.62,0,0,0,642.5,70.19Z" transform="translate(-61.53 -29.64)" opacity="0.24" fill="url(#linear-gradient-12)"/>
        <path d="M641.58,69.17H121.17A25.24,25.24,0,0,0,115,70,24.41,24.41,0,0,0,96.55,93.58v57.84a24.35,24.35,0,0,0,24.34,24.35h106.4a12.31,12.31,0,0,0,1.5-.11H641.58A24.62,24.62,0,0,0,666.2,151V93.79A24.62,24.62,0,0,0,641.58,69.17Z" transform="translate(-61.53 -29.64)" opacity="0.25" fill="url(#linear-gradient-13)"/>
        <path d="M640.66,68.15H120.25a25.24,25.24,0,0,0-6.19.79A24.42,24.42,0,0,0,95.63,92.56V150.4A24.35,24.35,0,0,0,120,174.75h106.4a10.59,10.59,0,0,0,1.5-.11H640.66A24.62,24.62,0,0,0,665.28,150V92.78A24.63,24.63,0,0,0,640.66,68.15Z" transform="translate(-61.53 -29.64)" opacity="0.27" fill="url(#linear-gradient-14)"/>
        <path d="M639.73,67.13H119.33a25.24,25.24,0,0,0-6.19.79A24.41,24.41,0,0,0,94.71,91.54v57.84a24.35,24.35,0,0,0,24.34,24.35h106.4a10.7,10.7,0,0,0,1.5-.11H639.73A24.63,24.63,0,0,0,664.36,149V91.76A24.63,24.63,0,0,0,639.73,67.13Z" transform="translate(-61.53 -29.64)" opacity="0.29" fill="url(#linear-gradient-15)"/>
        <path d="M638.81,66.11H118.41a25.38,25.38,0,0,0-6.2.79A24.41,24.41,0,0,0,93.79,90.52v57.84a24.34,24.34,0,0,0,24.34,24.35h106.4a10.56,10.56,0,0,0,1.49-.11H638.81A24.62,24.62,0,0,0,663.43,148V90.74A24.63,24.63,0,0,0,638.81,66.11Z" transform="translate(-61.53 -29.64)" opacity="0.31" fill="url(#linear-gradient-16)"/>
        <path d="M637.89,65.1H117.49a25.32,25.32,0,0,0-6.2.78A24.41,24.41,0,0,0,92.87,89.5v57.84a24.34,24.34,0,0,0,24.33,24.35H223.6a10.59,10.59,0,0,0,1.5-.11H637.89A24.62,24.62,0,0,0,662.51,147V89.72A24.62,24.62,0,0,0,637.89,65.1Z" transform="translate(-61.53 -29.64)" opacity="0.33" fill="url(#linear-gradient-17)"/>
        <path d="M637,64.08H116.57a25.32,25.32,0,0,0-6.2.78A24.41,24.41,0,0,0,92,88.48v57.84a24.34,24.34,0,0,0,24.33,24.35h106.4a10.59,10.59,0,0,0,1.5-.11H637a24.62,24.62,0,0,0,24.62-24.62V88.7A24.62,24.62,0,0,0,637,64.08Z" transform="translate(-61.53 -29.64)" opacity="0.35" fill="url(#linear-gradient-18)"/>
        <path d="M636.05,63.06H115.64a25.3,25.3,0,0,0-6.19.78A24.42,24.42,0,0,0,91,87.46V145.3a24.35,24.35,0,0,0,24.34,24.35h106.4a10.59,10.59,0,0,0,1.5-.11H636.05a24.62,24.62,0,0,0,24.62-24.62V87.68A24.62,24.62,0,0,0,636.05,63.06Z" transform="translate(-61.53 -29.64)" opacity="0.37" fill="url(#linear-gradient-19)"/>
        <path d="M635.13,62H114.72a25.23,25.23,0,0,0-6.19.78A24.42,24.42,0,0,0,90.1,86.44v57.84a24.35,24.35,0,0,0,24.34,24.35h106.4a10.59,10.59,0,0,0,1.5-.11H635.13a24.62,24.62,0,0,0,24.62-24.62V86.66A24.62,24.62,0,0,0,635.13,62Z" transform="translate(-61.53 -29.64)" opacity="0.39" fill="url(#linear-gradient-20)"/>
        <path d="M634.21,61H113.8a25.23,25.23,0,0,0-6.19.78A24.41,24.41,0,0,0,89.18,85.43v57.83a24.35,24.35,0,0,0,24.34,24.35h106.4a10.7,10.7,0,0,0,1.5-.11H634.21a24.62,24.62,0,0,0,24.62-24.62V85.64A24.62,24.62,0,0,0,634.21,61Z" transform="translate(-61.53 -29.64)" opacity="0.41" fill="url(#linear-gradient-21)"/>
        <path d="M633.28,60H112.88a25.23,25.23,0,0,0-6.19.78A24.41,24.41,0,0,0,88.26,84.41v57.83a24.35,24.35,0,0,0,24.34,24.35H219a10.45,10.45,0,0,0,1.49-.11H633.28a24.62,24.62,0,0,0,24.62-24.62V84.62A24.62,24.62,0,0,0,633.28,60Z" transform="translate(-61.53 -29.64)" opacity="0.43" fill="url(#linear-gradient-22)"/>
        <path d="M632.36,59H112a25.38,25.38,0,0,0-6.2.78A24.41,24.41,0,0,0,87.34,83.39v57.83a24.34,24.34,0,0,0,24.34,24.35H218.07a12.32,12.32,0,0,0,1.5-.1H632.36A24.63,24.63,0,0,0,657,140.84V83.6A24.62,24.62,0,0,0,632.36,59Z" transform="translate(-61.53 -29.64)" opacity="0.45" fill="url(#linear-gradient-23)"/>
        <path d="M631.44,58H111a25.32,25.32,0,0,0-6.2.78A24.42,24.42,0,0,0,86.42,82.37V140.2a24.34,24.34,0,0,0,24.33,24.35h106.4a12.32,12.32,0,0,0,1.5-.1H631.44a24.63,24.63,0,0,0,24.62-24.63V82.58A24.62,24.62,0,0,0,631.44,58Z" transform="translate(-61.53 -29.64)" opacity="0.47" fill="url(#linear-gradient-24)"/>
        <path d="M630.52,56.94H110.12a24.84,24.84,0,0,0-6.2.79A24.41,24.41,0,0,0,85.49,81.35v57.83a24.35,24.35,0,0,0,24.34,24.35h106.4a12.32,12.32,0,0,0,1.5-.1H630.52a24.62,24.62,0,0,0,24.62-24.62V81.56A24.62,24.62,0,0,0,630.52,56.94Z" transform="translate(-61.53 -29.64)" opacity="0.49" fill="url(#linear-gradient-25)"/>
        <path d="M629.6,55.92H109.19a24.77,24.77,0,0,0-6.19.79A24.41,24.41,0,0,0,84.57,80.33v57.84a24.34,24.34,0,0,0,24.34,24.34h106.4a12.32,12.32,0,0,0,1.5-.1H629.6a24.62,24.62,0,0,0,24.62-24.62V80.54A24.62,24.62,0,0,0,629.6,55.92Z" transform="translate(-61.53 -29.64)" opacity="0.51" fill="url(#linear-gradient-26)"/>
        <path d="M628.68,54.9H108.27a24.77,24.77,0,0,0-6.19.79A24.41,24.41,0,0,0,83.65,79.31v57.84A24.34,24.34,0,0,0,108,161.49h106.4a12.32,12.32,0,0,0,1.5-.1H628.68a24.63,24.63,0,0,0,24.62-24.62V79.52A24.62,24.62,0,0,0,628.68,54.9Z" transform="translate(-61.53 -29.64)" opacity="0.53" fill="url(#linear-gradient-27)"/>
        <path d="M627.75,53.88H107.35a24.77,24.77,0,0,0-6.19.79A24.4,24.4,0,0,0,82.73,78.29v57.84a24.34,24.34,0,0,0,24.34,24.34h106.4a12.46,12.46,0,0,0,1.5-.1H627.75a24.63,24.63,0,0,0,24.63-24.62V78.5A24.63,24.63,0,0,0,627.75,53.88Z" transform="translate(-61.53 -29.64)" opacity="0.55" fill="url(#linear-gradient-28)"/>
        <path d="M626.83,52.86H106.43a24.9,24.9,0,0,0-6.2.79A24.4,24.4,0,0,0,81.81,77.27v57.84a24.34,24.34,0,0,0,24.34,24.34H212.54a12.32,12.32,0,0,0,1.5-.1H626.83a24.62,24.62,0,0,0,24.62-24.62V77.48A24.62,24.62,0,0,0,626.83,52.86Z" transform="translate(-61.53 -29.64)" opacity="0.57" fill="url(#linear-gradient-29)"/>
        <path d="M625.91,51.84H105.51a24.84,24.84,0,0,0-6.2.79A24.4,24.4,0,0,0,80.89,76.25v57.84a24.34,24.34,0,0,0,24.33,24.35h106.4a12.31,12.31,0,0,0,1.5-.11H625.91a24.62,24.62,0,0,0,24.62-24.62V76.46A24.62,24.62,0,0,0,625.91,51.84Z" transform="translate(-61.53 -29.64)" opacity="0.59" fill="url(#linear-gradient-30)"/>
        <path d="M625,50.82H104.59a24.84,24.84,0,0,0-6.2.79A24.4,24.4,0,0,0,80,75.23v57.84a24.34,24.34,0,0,0,24.33,24.35H210.7a12.31,12.31,0,0,0,1.5-.11H625a24.62,24.62,0,0,0,24.62-24.62V75.44A24.62,24.62,0,0,0,625,50.82Z" transform="translate(-61.53 -29.64)" opacity="0.61" fill="url(#linear-gradient-31)"/>
        <path d="M624.07,49.8H103.66a24.77,24.77,0,0,0-6.19.79A24.41,24.41,0,0,0,79,74.21v57.84a24.35,24.35,0,0,0,24.34,24.35h106.4a12.31,12.31,0,0,0,1.5-.11H624.07a24.62,24.62,0,0,0,24.62-24.62V74.42A24.62,24.62,0,0,0,624.07,49.8Z" transform="translate(-61.53 -29.64)" opacity="0.63" fill="url(#linear-gradient-32)"/>
        <path d="M623.15,48.78H102.74a24.77,24.77,0,0,0-6.19.79A24.41,24.41,0,0,0,78.12,73.19V131a24.35,24.35,0,0,0,24.34,24.35h106.4a12.31,12.31,0,0,0,1.5-.11H623.15a24.62,24.62,0,0,0,24.62-24.62V73.4A24.62,24.62,0,0,0,623.15,48.78Z" transform="translate(-61.53 -29.64)" opacity="0.65" fill="url(#linear-gradient-33)"/>
        <path d="M622.22,47.76H101.82a24.77,24.77,0,0,0-6.19.79A24.4,24.4,0,0,0,77.2,72.17V130a24.35,24.35,0,0,0,24.34,24.35h106.4a12.46,12.46,0,0,0,1.5-.11H622.22a24.63,24.63,0,0,0,24.63-24.62V72.38A24.63,24.63,0,0,0,622.22,47.76Z" transform="translate(-61.53 -29.64)" opacity="0.67" fill="url(#linear-gradient-34)"/>
        <path d="M621.3,46.74H100.9a25.38,25.38,0,0,0-6.2.79A24.4,24.4,0,0,0,76.28,71.15V129a24.35,24.35,0,0,0,24.34,24.35H207a12.29,12.29,0,0,0,1.49-.11H621.3a24.62,24.62,0,0,0,24.62-24.62V71.36A24.62,24.62,0,0,0,621.3,46.74Z" transform="translate(-61.53 -29.64)" opacity="0.69" fill="url(#linear-gradient-35)"/>
        <path d="M620.38,45.72H100a25.32,25.32,0,0,0-6.2.79A24.4,24.4,0,0,0,75.36,70.13V128a24.34,24.34,0,0,0,24.33,24.35h106.4a12.31,12.31,0,0,0,1.5-.11H620.38A24.62,24.62,0,0,0,645,127.59V70.34A24.62,24.62,0,0,0,620.38,45.72Z" transform="translate(-61.53 -29.64)" opacity="0.71" fill="url(#linear-gradient-36)"/>
        <path d="M619.46,44.7H99.06a25.32,25.32,0,0,0-6.2.79A24.4,24.4,0,0,0,74.44,69.11V127A24.34,24.34,0,0,0,98.77,151.3h106.4a12.31,12.31,0,0,0,1.5-.11H619.46a24.62,24.62,0,0,0,24.62-24.62V69.32A24.62,24.62,0,0,0,619.46,44.7Z" transform="translate(-61.53 -29.64)" opacity="0.73" fill="url(#linear-gradient-37)"/>
        <path d="M618.54,43.68H98.14a25.32,25.32,0,0,0-6.2.79A24.41,24.41,0,0,0,73.51,68.09v57.84a24.35,24.35,0,0,0,24.34,24.35h106.4a12.31,12.31,0,0,0,1.5-.11H618.54a24.62,24.62,0,0,0,24.62-24.62V68.3A24.62,24.62,0,0,0,618.54,43.68Z" transform="translate(-61.53 -29.64)" opacity="0.75" fill="url(#linear-gradient-38)"/>
        <path d="M617.62,42.66H97.21a25.24,25.24,0,0,0-6.19.79A24.41,24.41,0,0,0,72.59,67.07v57.84a24.35,24.35,0,0,0,24.34,24.35h106.4a12.31,12.31,0,0,0,1.5-.11H617.62a24.62,24.62,0,0,0,24.62-24.62V67.28A24.63,24.63,0,0,0,617.62,42.66Z" transform="translate(-61.53 -29.64)" opacity="0.76" fill="url(#linear-gradient-39)"/>
        <path d="M616.7,41.64H96.29a25.24,25.24,0,0,0-6.19.79A24.42,24.42,0,0,0,71.67,66.05v57.84A24.35,24.35,0,0,0,96,148.24h106.4a10.7,10.7,0,0,0,1.5-.11H616.7a24.62,24.62,0,0,0,24.62-24.62V66.27A24.63,24.63,0,0,0,616.7,41.64Z" transform="translate(-61.53 -29.64)" opacity="0.78" fill="url(#linear-gradient-40)"/>
        <path d="M615.77,40.62H95.37a25.24,25.24,0,0,0-6.19.79A24.41,24.41,0,0,0,70.75,65v57.84a24.35,24.35,0,0,0,24.34,24.35h106.4a10.7,10.7,0,0,0,1.5-.11H615.77a24.62,24.62,0,0,0,24.62-24.62V65.25A24.63,24.63,0,0,0,615.77,40.62Z" transform="translate(-61.53 -29.64)" opacity="0.8" fill="url(#linear-gradient-41)"/>
        <path d="M614.85,39.61H94.45a25.38,25.38,0,0,0-6.2.78A24.41,24.41,0,0,0,69.83,64v57.84A24.34,24.34,0,0,0,94.17,146.2H200.56a10.59,10.59,0,0,0,1.5-.11H614.85a24.62,24.62,0,0,0,24.62-24.62V64.23A24.62,24.62,0,0,0,614.85,39.61Z" transform="translate(-61.53 -29.64)" opacity="0.82" fill="url(#linear-gradient-42)"/>
        <path d="M613.93,38.59H93.53a25.32,25.32,0,0,0-6.2.78A24.41,24.41,0,0,0,68.91,63v57.84a24.34,24.34,0,0,0,24.33,24.35h106.4a10.59,10.59,0,0,0,1.5-.11H613.93a24.62,24.62,0,0,0,24.62-24.62V63.21A24.62,24.62,0,0,0,613.93,38.59Z" transform="translate(-61.53 -29.64)" opacity="0.84" fill="url(#linear-gradient-43)"/>
        <path d="M613,37.57H92.61a25.32,25.32,0,0,0-6.2.78A24.42,24.42,0,0,0,68,62v57.84a24.35,24.35,0,0,0,24.34,24.35h106.4a10.59,10.59,0,0,0,1.5-.11H613a24.62,24.62,0,0,0,24.62-24.62V62.19A24.62,24.62,0,0,0,613,37.57Z" transform="translate(-61.53 -29.64)" opacity="0.86" fill="url(#linear-gradient-44)"/>
        <path d="M612.09,36.55H91.68a25.23,25.23,0,0,0-6.19.78A24.42,24.42,0,0,0,67.06,61v57.84A24.35,24.35,0,0,0,91.4,143.14H197.8a10.59,10.59,0,0,0,1.5-.11H612.09a24.62,24.62,0,0,0,24.62-24.62V61.17A24.62,24.62,0,0,0,612.09,36.55Z" transform="translate(-61.53 -29.64)" opacity="0.88" fill="url(#linear-gradient-45)"/>
        <path d="M611.17,35.53H90.76a25.23,25.23,0,0,0-6.19.78A24.42,24.42,0,0,0,66.14,59.93v57.84a24.35,24.35,0,0,0,24.34,24.35h106.4a10.59,10.59,0,0,0,1.5-.11H611.17a24.62,24.62,0,0,0,24.62-24.62V60.15A24.62,24.62,0,0,0,611.17,35.53Z" transform="translate(-61.53 -29.64)" opacity="0.9" fill="url(#linear-gradient-46)"/>
        <path d="M610.24,34.51H89.84a25.23,25.23,0,0,0-6.19.78A24.41,24.41,0,0,0,65.22,58.92v57.83A24.35,24.35,0,0,0,89.56,141.1H196a10.7,10.7,0,0,0,1.5-.11H610.24a24.63,24.63,0,0,0,24.63-24.62V59.13A24.63,24.63,0,0,0,610.24,34.51Z" transform="translate(-61.53 -29.64)" opacity="0.92" fill="url(#linear-gradient-47)"/>
        <path d="M609.32,33.49H88.92a25.38,25.38,0,0,0-6.2.78A24.41,24.41,0,0,0,64.3,57.9v57.83a24.34,24.34,0,0,0,24.34,24.35H195a12.29,12.29,0,0,0,1.49-.1H609.32a24.63,24.63,0,0,0,24.62-24.63V58.11A24.62,24.62,0,0,0,609.32,33.49Z" transform="translate(-61.53 -29.64)" opacity="0.94" fill="url(#linear-gradient-48)"/>
        <path d="M608.4,32.47H88a25.32,25.32,0,0,0-6.2.78A24.41,24.41,0,0,0,63.38,56.88v57.83a24.34,24.34,0,0,0,24.33,24.35h106.4a12.32,12.32,0,0,0,1.5-.1H608.4A24.63,24.63,0,0,0,633,114.33V57.09A24.62,24.62,0,0,0,608.4,32.47Z" transform="translate(-61.53 -29.64)" opacity="0.96" fill="url(#linear-gradient-49)"/>
        <path d="M607.48,31.45H87.08a24.84,24.84,0,0,0-6.2.79A24.4,24.4,0,0,0,62.46,55.86v57.83A24.34,24.34,0,0,0,86.79,138h106.4a12.32,12.32,0,0,0,1.5-.1H607.48a24.63,24.63,0,0,0,24.62-24.63V56.07A24.62,24.62,0,0,0,607.48,31.45Z" transform="translate(-61.53 -29.64)" opacity="0.98" fill="url(#linear-gradient-50)"/>
        <path d="M606.56,30.43H86.15A24.62,24.62,0,0,0,61.53,54.84v57.84A24.34,24.34,0,0,0,85.87,137h106.4a12.32,12.32,0,0,0,1.5-.1H606.56a24.62,24.62,0,0,0,24.62-24.62V55.05A24.62,24.62,0,0,0,606.56,30.43Z" transform="translate(-61.53 -29.64)" fill="#3d3d3d"/>
      </g>
      <path d="M606.74,29.74V136.23a24.63,24.63,0,0,0,24.62-24.63V54.36A24.62,24.62,0,0,0,606.74,29.74Z" transform="translate(-61.53 -29.64)" fill="#e6e7e8"/>
      <path d="M86.34,29.74A24.62,24.62,0,0,0,61.72,54.36V111.6a24.63,24.63,0,0,0,24.62,24.63h520.4V29.74Z" transform="translate(-61.53 -29.64)" fill="url(#Degradado_sin_nombre_9)"/>
      <path d="M211,82.28l-2.85-1.65a8,8,0,0,1-4-6.89V41.33a11.68,11.68,0,0,0-11.68-11.69H86.06A24.35,24.35,0,0,0,61.72,54V112a24.36,24.36,0,0,0,24.34,24.38H192.45a11.69,11.69,0,0,0,11.68-11.7V92.23a8,8,0,0,1,4-6.89L211,83.69A.82.82,0,0,0,211,82.28Z" transform="translate(-61.53 -29.64)" fill="#e6e7e8"/>
      <text transform="translate(208.97 66.36)" font-size="34.35" fill="#4e4e4e" font-family="OpenSansLight-Italic, Open Sans" font-style="italic">Login With Google</text>
      <g id="_1_stroke" data-name="1 stroke">
        <g id="Google">
          <rect x="35.38" y="13.26" width="74.83" height="74.83" fill="none"/>
          <path d="M113,80.31a22.09,22.09,0,0,1,1.13-6.94l-12.61-9.63a37.63,37.63,0,0,0,0,33.14l12.6-9.65A22.29,22.29,0,0,1,113,80.31" transform="translate(-61.53 -29.64)" fill="#f9bc15" fill-rule="evenodd"/>
          <path d="M135.18,58.2A21.71,21.71,0,0,1,149,63.14l10.9-10.89a37.45,37.45,0,0,0-58.32,11.49l12.61,9.63a22.07,22.07,0,0,1,21-15.17" transform="translate(-61.53 -29.64)" fill="#ea4535" fill-rule="evenodd"/>
          <path d="M135.18,102.42a22.06,22.06,0,0,1-21-15.16l-12.61,9.63a37.36,37.36,0,0,0,33.62,20.84,35.69,35.69,0,0,0,24.41-9.33l-12-9.25a23.17,23.17,0,0,1-12.45,3.27" transform="translate(-61.53 -29.64)" fill="#36a852" fill-rule="evenodd"/>
          <path d="M171,80.31a31,31,0,0,0-.85-6.8H135.18V88h20.1a16.87,16.87,0,0,1-7.65,11.18l12,9.25C166.47,102,171,92.51,171,80.31" transform="translate(-61.53 -29.64)" fill="#557ebf" fill-rule="evenodd"/>
        </g>
      </g>
    </g>
  </g>
</svg>
