<svg xmlns="http://www.w3.org/2000/svg" xmlns:xlink="http://www.w3.org/1999/xlink" viewBox="0 0 617.61 158.64">
  <defs>
    <linearGradient id="Degradado_sin_nombre_1456" data-name="Degradado sin nombre 1456" x1="98.96" y1="133.92" x2="668.61" y2="133.92" gradientUnits="userSpaceOnUse">
      <stop offset="0" stop-color="#e6e6e5"/>
      <stop offset="1" stop-color="#ccc"/>
    </linearGradient>
    <linearGradient id="linear-gradient" x1="98.04" y1="132.9" x2="667.69" y2="132.9" gradientUnits="userSpaceOnUse">
      <stop offset="0" stop-color="#e2e2e1"/>
      <stop offset="1" stop-color="#c9c9c9"/>
    </linearGradient>
    <linearGradient id="linear-gradient-2" x1="97.12" y1="131.88" x2="666.77" y2="131.88" gradientUnits="userSpaceOnUse">
      <stop offset="0" stop-color="#dfdfdf"/>
      <stop offset="1" stop-color="#c7c7c7"/>
    </linearGradient>
    <linearGradient id="linear-gradient-3" x1="96.2" y1="130.86" x2="665.84" y2="130.86" gradientUnits="userSpaceOnUse">
      <stop offset="0" stop-color="#dcdcdc"/>
      <stop offset="1" stop-color="#c5c5c5"/>
    </linearGradient>
    <linearGradient id="linear-gradient-4" x1="95.28" y1="129.84" x2="664.92" y2="129.84" gradientUnits="userSpaceOnUse">
      <stop offset="0" stop-color="#dadada"/>
      <stop offset="1" stop-color="#c3c4c4"/>
    </linearGradient>
    <linearGradient id="linear-gradient-5" x1="94.36" y1="128.82" x2="664" y2="128.82" gradientUnits="userSpaceOnUse">
      <stop offset="0" stop-color="#d7d8d8"/>
      <stop offset="1" stop-color="#c2c2c2"/>
    </linearGradient>
    <linearGradient id="linear-gradient-6" x1="93.43" y1="127.8" x2="663.08" y2="127.8" gradientUnits="userSpaceOnUse">
      <stop offset="0" stop-color="#d5d5d6"/>
      <stop offset="1" stop-color="#c0c1c1"/>
    </linearGradient>
    <linearGradient id="linear-gradient-7" x1="92.51" y1="126.78" x2="662.16" y2="126.78" gradientUnits="userSpaceOnUse">
      <stop offset="0" stop-color="#d2d3d3"/>
      <stop offset="1" stop-color="#bebfbf"/>
    </linearGradient>
    <linearGradient id="linear-gradient-8" x1="91.59" y1="125.76" x2="661.24" y2="125.76" gradientUnits="userSpaceOnUse">
      <stop offset="0" stop-color="#d0d0d1"/>
      <stop offset="1" stop-color="#bdbdbd"/>
    </linearGradient>
    <linearGradient id="linear-gradient-9" x1="90.67" y1="124.74" x2="660.31" y2="124.74" gradientUnits="userSpaceOnUse">
      <stop offset="0" stop-color="#cdcecf"/>
      <stop offset="1" stop-color="#bbbcbc"/>
    </linearGradient>
    <linearGradient id="linear-gradient-10" x1="89.75" y1="123.72" x2="659.39" y2="123.72" gradientUnits="userSpaceOnUse">
      <stop offset="0" stop-color="#cbcccc"/>
      <stop offset="1" stop-color="#b9baba"/>
    </linearGradient>
    <linearGradient id="linear-gradient-11" x1="88.83" y1="122.7" x2="658.47" y2="122.7" gradientUnits="userSpaceOnUse">
      <stop offset="0" stop-color="#c8c9ca"/>
      <stop offset="1" stop-color="#b7b8b9"/>
    </linearGradient>
    <linearGradient id="linear-gradient-12" x1="87.9" y1="121.68" x2="657.55" y2="121.68" gradientUnits="userSpaceOnUse">
      <stop offset="0" stop-color="#c6c7c8"/>
      <stop offset="1" stop-color="#b5b6b7"/>
    </linearGradient>
    <linearGradient id="linear-gradient-13" x1="86.98" y1="120.66" x2="656.63" y2="120.66" gradientUnits="userSpaceOnUse">
      <stop offset="0" stop-color="#c3c4c5"/>
      <stop offset="1" stop-color="#b4b5b5"/>
    </linearGradient>
    <linearGradient id="linear-gradient-14" x1="86.06" y1="119.64" x2="655.71" y2="119.64" gradientUnits="userSpaceOnUse">
      <stop offset="0" stop-color="#c1c2c3"/>
      <stop offset="1" stop-color="#b2b3b3"/>
    </linearGradient>
    <linearGradient id="linear-gradient-15" x1="85.14" y1="118.62" x2="654.78" y2="118.62" gradientUnits="userSpaceOnUse">
      <stop offset="0" stop-color="#bebfc0"/>
      <stop offset="1" stop-color="#b0b1b2"/>
    </linearGradient>
    <linearGradient id="linear-gradient-16" x1="84.22" y1="117.6" x2="653.86" y2="117.6" gradientUnits="userSpaceOnUse">
      <stop offset="0" stop-color="#bcbdbe"/>
      <stop offset="1" stop-color="#aeafb0"/>
    </linearGradient>
    <linearGradient id="linear-gradient-17" x1="83.3" y1="116.58" x2="652.94" y2="116.58" gradientUnits="userSpaceOnUse">
      <stop offset="0" stop-color="#b9babc"/>
      <stop offset="1" stop-color="#acadae"/>
    </linearGradient>
    <linearGradient id="linear-gradient-18" x1="82.37" y1="115.57" x2="652.02" y2="115.57" gradientUnits="userSpaceOnUse">
      <stop offset="0" stop-color="#b6b8b9"/>
      <stop offset="1" stop-color="#aaabac"/>
    </linearGradient>
    <linearGradient id="linear-gradient-19" x1="81.45" y1="114.55" x2="651.1" y2="114.55" gradientUnits="userSpaceOnUse">
      <stop offset="0" stop-color="#b4b5b6"/>
      <stop offset="1" stop-color="#a8a9aa"/>
    </linearGradient>
    <linearGradient id="linear-gradient-20" x1="80.53" y1="113.53" x2="650.18" y2="113.53" gradientUnits="userSpaceOnUse">
      <stop offset="0" stop-color="#b1b2b4"/>
      <stop offset="1" stop-color="#a6a7a8"/>
    </linearGradient>
    <linearGradient id="linear-gradient-21" x1="79.61" y1="112.51" x2="649.26" y2="112.51" gradientUnits="userSpaceOnUse">
      <stop offset="0" stop-color="#aeb0b1"/>
      <stop offset="1" stop-color="#a4a5a6"/>
    </linearGradient>
    <linearGradient id="linear-gradient-22" x1="78.69" y1="111.49" x2="648.33" y2="111.49" gradientUnits="userSpaceOnUse">
      <stop offset="0" stop-color="#acadaf"/>
      <stop offset="1" stop-color="#a1a3a4"/>
    </linearGradient>
    <linearGradient id="linear-gradient-23" x1="77.77" y1="110.47" x2="647.41" y2="110.47" gradientUnits="userSpaceOnUse">
      <stop offset="0" stop-color="#a9aaac"/>
      <stop offset="1" stop-color="#9fa1a2"/>
    </linearGradient>
    <linearGradient id="linear-gradient-24" x1="76.85" y1="109.45" x2="646.49" y2="109.45" gradientUnits="userSpaceOnUse">
      <stop offset="0" stop-color="#a6a8aa"/>
      <stop offset="1" stop-color="#9d9ea0"/>
    </linearGradient>
    <linearGradient id="linear-gradient-25" x1="75.92" y1="108.43" x2="645.57" y2="108.43" gradientUnits="userSpaceOnUse">
      <stop offset="0" stop-color="#a4a5a7"/>
      <stop offset="1" stop-color="#9b9c9e"/>
    </linearGradient>
    <linearGradient id="linear-gradient-26" x1="75" y1="107.41" x2="644.65" y2="107.41" gradientUnits="userSpaceOnUse">
      <stop offset="0" stop-color="#a1a3a5"/>
      <stop offset="1" stop-color="#999a9c"/>
    </linearGradient>
    <linearGradient id="linear-gradient-27" x1="74.08" y1="106.39" x2="643.73" y2="106.39" gradientUnits="userSpaceOnUse">
      <stop offset="0" stop-color="#9fa0a2"/>
      <stop offset="1" stop-color="#97989a"/>
    </linearGradient>
    <linearGradient id="linear-gradient-28" x1="73.16" y1="105.37" x2="642.8" y2="105.37" gradientUnits="userSpaceOnUse">
      <stop offset="0" stop-color="#9c9d9f"/>
      <stop offset="1" stop-color="#959697"/>
    </linearGradient>
    <linearGradient id="linear-gradient-29" x1="72.24" y1="104.35" x2="641.88" y2="104.35" gradientUnits="userSpaceOnUse">
      <stop offset="0" stop-color="#999b9d"/>
      <stop offset="1" stop-color="#929495"/>
    </linearGradient>
    <linearGradient id="linear-gradient-30" x1="71.32" y1="103.33" x2="640.96" y2="103.33" gradientUnits="userSpaceOnUse">
      <stop offset="0" stop-color="#97989a"/>
      <stop offset="1" stop-color="#909193"/>
    </linearGradient>
    <linearGradient id="linear-gradient-31" x1="70.39" y1="102.31" x2="640.04" y2="102.31" gradientUnits="userSpaceOnUse">
      <stop offset="0" stop-color="#949698"/>
      <stop offset="1" stop-color="#8e8f91"/>
    </linearGradient>
    <linearGradient id="linear-gradient-32" x1="69.47" y1="101.29" x2="639.12" y2="101.29" gradientUnits="userSpaceOnUse">
      <stop offset="0" stop-color="#929395"/>
      <stop offset="1" stop-color="#8c8d8f"/>
    </linearGradient>
    <linearGradient id="linear-gradient-33" x1="68.55" y1="100.27" x2="638.2" y2="100.27" gradientUnits="userSpaceOnUse">
      <stop offset="0" stop-color="#8f9193"/>
      <stop offset="1" stop-color="#8a8b8d"/>
    </linearGradient>
    <linearGradient id="linear-gradient-34" x1="67.63" y1="99.25" x2="637.28" y2="99.25" gradientUnits="userSpaceOnUse">
      <stop offset="0" stop-color="#8c8e90"/>
      <stop offset="1" stop-color="#87898b"/>
    </linearGradient>
    <linearGradient id="linear-gradient-35" x1="66.71" y1="98.23" x2="636.35" y2="98.23" gradientUnits="userSpaceOnUse">
      <stop offset="0" stop-color="#8a8c8e"/>
      <stop offset="1" stop-color="#858788"/>
    </linearGradient>
    <linearGradient id="linear-gradient-36" x1="65.79" y1="97.21" x2="635.43" y2="97.21" gradientUnits="userSpaceOnUse">
      <stop offset="0" stop-color="#87898b"/>
      <stop offset="1" stop-color="#838486"/>
    </linearGradient>
    <linearGradient id="linear-gradient-37" x1="64.87" y1="96.19" x2="634.51" y2="96.19" gradientUnits="userSpaceOnUse">
      <stop offset="0" stop-color="#858689"/>
      <stop offset="1" stop-color="#818284"/>
    </linearGradient>
    <linearGradient id="linear-gradient-38" x1="63.94" y1="95.17" x2="633.59" y2="95.17" gradientUnits="userSpaceOnUse">
      <stop offset="0" stop-color="#828486"/>
      <stop offset="1" stop-color="#7f8082"/>
    </linearGradient>
    <linearGradient id="linear-gradient-39" x1="63.02" y1="94.15" x2="632.67" y2="94.15" gradientUnits="userSpaceOnUse">
      <stop offset="0" stop-color="#808184"/>
      <stop offset="1" stop-color="#7d7e80"/>
    </linearGradient>
    <linearGradient id="linear-gradient-40" x1="62.1" y1="93.13" x2="631.75" y2="93.13" gradientUnits="userSpaceOnUse">
      <stop offset="0" stop-color="#7d7f81"/>
      <stop offset="1" stop-color="#7a7b7d"/>
    </linearGradient>
    <linearGradient id="linear-gradient-41" x1="61.18" y1="92.11" x2="630.82" y2="92.11" gradientUnits="userSpaceOnUse">
      <stop offset="0" stop-color="#7b7c7f"/>
      <stop offset="1" stop-color="#78797b"/>
    </linearGradient>
    <linearGradient id="linear-gradient-42" x1="60.26" y1="91.09" x2="629.9" y2="91.09" gradientUnits="userSpaceOnUse">
      <stop offset="0" stop-color="#787a7c"/>
      <stop offset="1" stop-color="#767779"/>
    </linearGradient>
    <linearGradient id="linear-gradient-43" x1="59.34" y1="90.07" x2="628.98" y2="90.07" gradientUnits="userSpaceOnUse">
      <stop offset="0" stop-color="#76777a"/>
      <stop offset="1" stop-color="#747577"/>
    </linearGradient>
    <linearGradient id="linear-gradient-44" x1="58.41" y1="89.06" x2="628.06" y2="89.06" gradientUnits="userSpaceOnUse">
      <stop offset="0" stop-color="#737577"/>
      <stop offset="1" stop-color="#717275"/>
    </linearGradient>
    <linearGradient id="linear-gradient-45" x1="57.49" y1="88.04" x2="627.14" y2="88.04" gradientUnits="userSpaceOnUse">
      <stop offset="0" stop-color="#717274"/>
      <stop offset="1" stop-color="#6f7072"/>
    </linearGradient>
    <linearGradient id="linear-gradient-46" x1="56.57" y1="87.02" x2="626.22" y2="87.02" gradientUnits="userSpaceOnUse">
      <stop offset="0" stop-color="#6e7072"/>
      <stop offset="1" stop-color="#6d6e70"/>
    </linearGradient>
    <linearGradient id="linear-gradient-47" x1="55.65" y1="86" x2="625.29" y2="86" gradientUnits="userSpaceOnUse">
      <stop offset="0" stop-color="#6c6d6f"/>
      <stop offset="1" stop-color="#6a6b6d"/>
    </linearGradient>
    <linearGradient id="linear-gradient-48" x1="54.73" y1="84.98" x2="624.37" y2="84.98" gradientUnits="userSpaceOnUse">
      <stop offset="0" stop-color="#696a6c"/>
      <stop offset="1" stop-color="#68696b"/>
    </linearGradient>
    <linearGradient id="linear-gradient-49" x1="53.81" y1="83.96" x2="623.45" y2="83.96" gradientUnits="userSpaceOnUse">
      <stop offset="0" stop-color="#66676a"/>
      <stop offset="1" stop-color="#656769"/>
    </linearGradient>
    <linearGradient id="linear-gradient-50" x1="52.88" y1="82.94" x2="622.53" y2="82.94" gradientUnits="userSpaceOnUse">
      <stop offset="0" stop-color="#636567"/>
      <stop offset="1" stop-color="#636466"/>
    </linearGradient>
    <linearGradient id="Degradado_sin_nombre_1415" data-name="Degradado sin nombre 1415" x1="596.03" y1="81.91" x2="620.65" y2="81.91" gradientUnits="userSpaceOnUse">
      <stop offset="0.04" stop-color="#0c7fb6"/>
      <stop offset="0.43" stop-color="#0c82b9"/>
      <stop offset="0.69" stop-color="#0e8ac1"/>
      <stop offset="0.91" stop-color="#1099cf"/>
      <stop offset="0.99" stop-color="#11a1d6"/>
    </linearGradient>
    <linearGradient id="Degradado_sin_nombre_9" data-name="Degradado sin nombre 9" x1="490" y1="-77.36" x2="171.45" y2="241.19" gradientUnits="userSpaceOnUse">
      <stop offset="0" stop-color="#fff"/>
      <stop offset="0.52" stop-color="#fdfdfd"/>
      <stop offset="0.77" stop-color="#f6f6f5"/>
      <stop offset="0.97" stop-color="#e9e9e8"/>
      <stop offset="1" stop-color="#e6e6e5"/>
    </linearGradient>
    <linearGradient id="Degradado_sin_nombre_1415-2" x1="51" y1="81.92" x2="200.64" y2="81.92" xlink:href="#Degradado_sin_nombre_1415"/>
  </defs>
  <title>linkedin</title>
  <g style="isolation: isolate">
    <g id="Layer_1" data-name="Layer 1">
      <g>
        <g>
          <g opacity="0.49" style="mix-blend-mode: multiply">
            <path d="M644,80.62H123.58A24.62,24.62,0,0,0,99,105v57.84a24.35,24.35,0,0,0,24.34,24.35H229.7a12.31,12.31,0,0,0,1.5-.11H644a24.62,24.62,0,0,0,24.62-24.62V105.24A24.62,24.62,0,0,0,644,80.62Z" transform="translate(-51 -28.57)" opacity="0" fill="url(#Degradado_sin_nombre_1456)"/>
            <path d="M643.07,79.6H122.66a24.77,24.77,0,0,0-6.19.79A24.41,24.41,0,0,0,98,104v57.84a24.35,24.35,0,0,0,24.34,24.35h106.4a12.31,12.31,0,0,0,1.5-.11H643.07a24.62,24.62,0,0,0,24.62-24.62V104.22A24.62,24.62,0,0,0,643.07,79.6Z" transform="translate(-51 -28.57)" opacity="0.02" fill="url(#linear-gradient)"/>
            <path d="M642.14,78.58H121.74a24.77,24.77,0,0,0-6.19.79A24.4,24.4,0,0,0,97.12,103v57.84a24.35,24.35,0,0,0,24.34,24.35h106.4a12.46,12.46,0,0,0,1.5-.11H642.14a24.63,24.63,0,0,0,24.63-24.62V103.2A24.63,24.63,0,0,0,642.14,78.58Z" transform="translate(-51 -28.57)" opacity="0.04" fill="url(#linear-gradient-2)"/>
            <path d="M641.22,77.56H120.82a24.9,24.9,0,0,0-6.2.79A24.4,24.4,0,0,0,96.2,102v57.84a24.34,24.34,0,0,0,24.34,24.35H226.93a12.31,12.31,0,0,0,1.5-.11H641.22a24.62,24.62,0,0,0,24.62-24.62V102.18A24.62,24.62,0,0,0,641.22,77.56Z" transform="translate(-51 -28.57)" opacity="0.06" fill="url(#linear-gradient-3)"/>
            <path d="M640.3,76.54H119.9a24.84,24.84,0,0,0-6.2.79A24.4,24.4,0,0,0,95.28,101v57.84a24.34,24.34,0,0,0,24.33,24.35H226a12.31,12.31,0,0,0,1.5-.11H640.3a24.62,24.62,0,0,0,24.62-24.62V101.16A24.62,24.62,0,0,0,640.3,76.54Z" transform="translate(-51 -28.57)" opacity="0.08" fill="url(#linear-gradient-4)"/>
            <path d="M639.38,75.52H119a25.32,25.32,0,0,0-6.2.79A24.4,24.4,0,0,0,94.36,99.93v57.84a24.34,24.34,0,0,0,24.33,24.35h106.4a12.31,12.31,0,0,0,1.5-.11H639.38A24.62,24.62,0,0,0,664,157.39V100.14A24.62,24.62,0,0,0,639.38,75.52Z" transform="translate(-51 -28.57)" opacity="0.1" fill="url(#linear-gradient-5)"/>
            <path d="M638.46,74.5H118.05a25.24,25.24,0,0,0-6.19.79A24.41,24.41,0,0,0,93.43,98.91v57.84a24.35,24.35,0,0,0,24.34,24.35h106.4a12.31,12.31,0,0,0,1.5-.11H638.46a24.62,24.62,0,0,0,24.62-24.62V99.12A24.62,24.62,0,0,0,638.46,74.5Z" transform="translate(-51 -28.57)" opacity="0.12" fill="url(#linear-gradient-6)"/>
            <path d="M637.54,73.48H117.13a25.24,25.24,0,0,0-6.19.79A24.41,24.41,0,0,0,92.51,97.89v57.84a24.35,24.35,0,0,0,24.34,24.35h106.4a12.31,12.31,0,0,0,1.5-.11H637.54a24.62,24.62,0,0,0,24.62-24.62V98.1A24.63,24.63,0,0,0,637.54,73.48Z" transform="translate(-51 -28.57)" opacity="0.14" fill="url(#linear-gradient-7)"/>
            <path d="M636.61,72.46H116.21a25.24,25.24,0,0,0-6.19.79A24.4,24.4,0,0,0,91.59,96.87v57.84a24.35,24.35,0,0,0,24.34,24.35h106.4a12.46,12.46,0,0,0,1.5-.11H636.61a24.63,24.63,0,0,0,24.63-24.62V97.08A24.63,24.63,0,0,0,636.61,72.46Z" transform="translate(-51 -28.57)" opacity="0.16" fill="url(#linear-gradient-8)"/>
            <path d="M635.69,71.44H115.29a25.38,25.38,0,0,0-6.2.79A24.41,24.41,0,0,0,90.67,95.85v57.84A24.35,24.35,0,0,0,115,178h106.4a10.56,10.56,0,0,0,1.49-.11H635.69a24.62,24.62,0,0,0,24.62-24.62V96.07A24.63,24.63,0,0,0,635.69,71.44Z" transform="translate(-51 -28.57)" opacity="0.18" fill="url(#linear-gradient-9)"/>
            <path d="M634.77,70.42H114.37a25.38,25.38,0,0,0-6.2.79A24.41,24.41,0,0,0,89.75,94.83v57.84A24.34,24.34,0,0,0,114.08,177h106.4a10.59,10.59,0,0,0,1.5-.11H634.77a24.62,24.62,0,0,0,24.62-24.62V95.05A24.63,24.63,0,0,0,634.77,70.42Z" transform="translate(-51 -28.57)" opacity="0.2" fill="url(#linear-gradient-10)"/>
            <path d="M633.85,69.4H113.45a25.32,25.32,0,0,0-6.2.79A24.41,24.41,0,0,0,88.83,93.81v57.84A24.34,24.34,0,0,0,113.16,176h106.4a10.59,10.59,0,0,0,1.5-.11H633.85a24.62,24.62,0,0,0,24.62-24.62V94A24.63,24.63,0,0,0,633.85,69.4Z" transform="translate(-51 -28.57)" opacity="0.22" fill="url(#linear-gradient-11)"/>
            <path d="M632.93,68.39H112.53a25.32,25.32,0,0,0-6.2.78A24.42,24.42,0,0,0,87.9,92.79v57.84A24.35,24.35,0,0,0,112.24,175h106.4a10.59,10.59,0,0,0,1.5-.11H632.93a24.62,24.62,0,0,0,24.62-24.62V93A24.62,24.62,0,0,0,632.93,68.39Z" transform="translate(-51 -28.57)" opacity="0.24" fill="url(#linear-gradient-12)"/>
            <path d="M632,67.37H111.6a25.23,25.23,0,0,0-6.19.78A24.42,24.42,0,0,0,87,91.77v57.84A24.35,24.35,0,0,0,111.32,174h106.4a10.59,10.59,0,0,0,1.5-.11H632a24.62,24.62,0,0,0,24.62-24.62V92A24.62,24.62,0,0,0,632,67.37Z" transform="translate(-51 -28.57)" opacity="0.25" fill="url(#linear-gradient-13)"/>
            <path d="M631.09,66.35H110.68a25.23,25.23,0,0,0-6.19.78A24.42,24.42,0,0,0,86.06,90.75v57.84a24.35,24.35,0,0,0,24.34,24.35H216.8a10.7,10.7,0,0,0,1.5-.11H631.09a24.62,24.62,0,0,0,24.62-24.62V91A24.62,24.62,0,0,0,631.09,66.35Z" transform="translate(-51 -28.57)" opacity="0.27" fill="url(#linear-gradient-14)"/>
            <path d="M630.16,65.33H109.76a25.23,25.23,0,0,0-6.19.78A24.41,24.41,0,0,0,85.14,89.73v57.84a24.35,24.35,0,0,0,24.34,24.35h106.4a10.7,10.7,0,0,0,1.5-.11H630.16a24.62,24.62,0,0,0,24.62-24.62V90A24.62,24.62,0,0,0,630.16,65.33Z" transform="translate(-51 -28.57)" opacity="0.29" fill="url(#linear-gradient-15)"/>
            <path d="M629.24,64.31H108.84a25.38,25.38,0,0,0-6.2.78A24.41,24.41,0,0,0,84.22,88.72v57.83a24.34,24.34,0,0,0,24.34,24.35H215a10.59,10.59,0,0,0,1.5-.11H629.24a24.62,24.62,0,0,0,24.62-24.62V88.93A24.62,24.62,0,0,0,629.24,64.31Z" transform="translate(-51 -28.57)" opacity="0.31" fill="url(#linear-gradient-16)"/>
            <path d="M628.32,63.29H107.92a25.32,25.32,0,0,0-6.2.78A24.41,24.41,0,0,0,83.3,87.7v57.83a24.34,24.34,0,0,0,24.33,24.35H214a12.32,12.32,0,0,0,1.5-.1H628.32a24.63,24.63,0,0,0,24.62-24.63V87.91A24.62,24.62,0,0,0,628.32,63.29Z" transform="translate(-51 -28.57)" opacity="0.33" fill="url(#linear-gradient-17)"/>
            <path d="M627.4,62.27H107a25.32,25.32,0,0,0-6.2.78A24.42,24.42,0,0,0,82.37,86.68v57.83a24.35,24.35,0,0,0,24.34,24.35h106.4a12.32,12.32,0,0,0,1.5-.1H627.4A24.63,24.63,0,0,0,652,144.13V86.89A24.62,24.62,0,0,0,627.4,62.27Z" transform="translate(-51 -28.57)" opacity="0.35" fill="url(#linear-gradient-18)"/>
            <path d="M626.48,61.25H106.07a24.77,24.77,0,0,0-6.19.79A24.41,24.41,0,0,0,81.45,85.66v57.83a24.35,24.35,0,0,0,24.34,24.35h106.4a12.32,12.32,0,0,0,1.5-.1H626.48a24.63,24.63,0,0,0,24.62-24.63V85.87A24.62,24.62,0,0,0,626.48,61.25Z" transform="translate(-51 -28.57)" opacity="0.37" fill="url(#linear-gradient-19)"/>
            <path d="M625.56,60.23H105.15A24.77,24.77,0,0,0,99,61,24.41,24.41,0,0,0,80.53,84.64v57.83a24.35,24.35,0,0,0,24.34,24.35h106.4a12.32,12.32,0,0,0,1.5-.1H625.56a24.63,24.63,0,0,0,24.62-24.62V84.85A24.62,24.62,0,0,0,625.56,60.23Z" transform="translate(-51 -28.57)" opacity="0.39" fill="url(#linear-gradient-20)"/>
            <path d="M624.63,59.21H104.23A24.77,24.77,0,0,0,98,60,24.4,24.4,0,0,0,79.61,83.62v57.84A24.34,24.34,0,0,0,104,165.8h106.4a12.46,12.46,0,0,0,1.5-.1H624.63a24.63,24.63,0,0,0,24.63-24.62V83.83A24.63,24.63,0,0,0,624.63,59.21Z" transform="translate(-51 -28.57)" opacity="0.41" fill="url(#linear-gradient-21)"/>
            <path d="M623.71,58.19H103.31a24.9,24.9,0,0,0-6.2.79A24.4,24.4,0,0,0,78.69,82.6v57.84A24.34,24.34,0,0,0,103,164.78h106.4a12.29,12.29,0,0,0,1.49-.1H623.71a24.62,24.62,0,0,0,24.62-24.62V82.81A24.62,24.62,0,0,0,623.71,58.19Z" transform="translate(-51 -28.57)" opacity="0.43" fill="url(#linear-gradient-22)"/>
            <path d="M622.79,57.17H102.39a24.84,24.84,0,0,0-6.2.79A24.4,24.4,0,0,0,77.77,81.58v57.84a24.33,24.33,0,0,0,24.33,24.34H208.5a12.32,12.32,0,0,0,1.5-.1H622.79A24.62,24.62,0,0,0,647.41,139V81.79A24.62,24.62,0,0,0,622.79,57.17Z" transform="translate(-51 -28.57)" opacity="0.45" fill="url(#linear-gradient-23)"/>
            <path d="M621.87,56.15H101.47a24.84,24.84,0,0,0-6.2.79A24.4,24.4,0,0,0,76.85,80.56V138.4a24.33,24.33,0,0,0,24.33,24.34h106.4a12.32,12.32,0,0,0,1.5-.1H621.87A24.62,24.62,0,0,0,646.49,138V80.77A24.62,24.62,0,0,0,621.87,56.15Z" transform="translate(-51 -28.57)" opacity="0.47" fill="url(#linear-gradient-24)"/>
            <path d="M621,55.13H100.54a24.77,24.77,0,0,0-6.19.79A24.41,24.41,0,0,0,75.92,79.54v57.84a24.35,24.35,0,0,0,24.34,24.35h106.4a12.31,12.31,0,0,0,1.5-.11H621A24.62,24.62,0,0,0,645.57,137V79.75A24.62,24.62,0,0,0,621,55.13Z" transform="translate(-51 -28.57)" opacity="0.49" fill="url(#linear-gradient-25)"/>
            <path d="M620,54.11H99.62a24.77,24.77,0,0,0-6.19.79A24.41,24.41,0,0,0,75,78.52v57.84a24.35,24.35,0,0,0,24.34,24.35h106.4a12.31,12.31,0,0,0,1.5-.11H620A24.62,24.62,0,0,0,644.65,136V78.73A24.62,24.62,0,0,0,620,54.11Z" transform="translate(-51 -28.57)" opacity="0.51" fill="url(#linear-gradient-26)"/>
            <path d="M619.11,53.09H98.7a24.77,24.77,0,0,0-6.19.79A24.4,24.4,0,0,0,74.08,77.5v57.84a24.35,24.35,0,0,0,24.34,24.35h106.4a12.46,12.46,0,0,0,1.5-.11H619.11A24.62,24.62,0,0,0,643.73,135V77.71A24.62,24.62,0,0,0,619.11,53.09Z" transform="translate(-51 -28.57)" opacity="0.53" fill="url(#linear-gradient-27)"/>
            <path d="M618.18,52.07H97.78a24.77,24.77,0,0,0-6.19.79A24.4,24.4,0,0,0,73.16,76.48v57.84A24.35,24.35,0,0,0,97.5,158.67H203.9a12.29,12.29,0,0,0,1.49-.11H618.18a24.62,24.62,0,0,0,24.62-24.62V76.69A24.62,24.62,0,0,0,618.18,52.07Z" transform="translate(-51 -28.57)" opacity="0.55" fill="url(#linear-gradient-28)"/>
            <path d="M617.26,51.05H96.86a24.9,24.9,0,0,0-6.2.79A24.4,24.4,0,0,0,72.24,75.46V133.3a24.34,24.34,0,0,0,24.34,24.35H203a12.31,12.31,0,0,0,1.5-.11H617.26a24.62,24.62,0,0,0,24.62-24.62V75.67A24.62,24.62,0,0,0,617.26,51.05Z" transform="translate(-51 -28.57)" opacity="0.57" fill="url(#linear-gradient-29)"/>
            <path d="M616.34,50H95.94a25.32,25.32,0,0,0-6.2.79A24.4,24.4,0,0,0,71.32,74.44v57.84a24.34,24.34,0,0,0,24.33,24.35h106.4a12.31,12.31,0,0,0,1.5-.11H616.34A24.62,24.62,0,0,0,641,131.9V74.65A24.62,24.62,0,0,0,616.34,50Z" transform="translate(-51 -28.57)" opacity="0.59" fill="url(#linear-gradient-30)"/>
            <path d="M615.42,49H95a25.32,25.32,0,0,0-6.2.79A24.41,24.41,0,0,0,70.39,73.42v57.84a24.35,24.35,0,0,0,24.34,24.35h106.4a12.31,12.31,0,0,0,1.5-.11H615.42A24.62,24.62,0,0,0,640,130.88V73.63A24.62,24.62,0,0,0,615.42,49Z" transform="translate(-51 -28.57)" opacity="0.61" fill="url(#linear-gradient-31)"/>
            <path d="M614.5,48H94.09a25.24,25.24,0,0,0-6.19.79A24.41,24.41,0,0,0,69.47,72.4v57.84a24.35,24.35,0,0,0,24.34,24.35h106.4a12.31,12.31,0,0,0,1.5-.11H614.5a24.62,24.62,0,0,0,24.62-24.62V72.61A24.62,24.62,0,0,0,614.5,48Z" transform="translate(-51 -28.57)" opacity="0.63" fill="url(#linear-gradient-32)"/>
            <path d="M613.58,47H93.17a25.24,25.24,0,0,0-6.19.79A24.41,24.41,0,0,0,68.55,71.38v57.84a24.35,24.35,0,0,0,24.34,24.35h106.4a12.31,12.31,0,0,0,1.5-.11H613.58a24.62,24.62,0,0,0,24.62-24.62V71.59A24.63,24.63,0,0,0,613.58,47Z" transform="translate(-51 -28.57)" opacity="0.65" fill="url(#linear-gradient-33)"/>
            <path d="M612.65,46H92.25a25.24,25.24,0,0,0-6.19.79A24.41,24.41,0,0,0,67.63,70.36V128.2A24.35,24.35,0,0,0,92,152.55h106.4a12.46,12.46,0,0,0,1.5-.11H612.65a24.63,24.63,0,0,0,24.63-24.62V70.57A24.63,24.63,0,0,0,612.65,46Z" transform="translate(-51 -28.57)" opacity="0.67" fill="url(#linear-gradient-34)"/>
            <path d="M611.73,44.93H91.33a25.38,25.38,0,0,0-6.2.79A24.41,24.41,0,0,0,66.71,69.34v57.84a24.34,24.34,0,0,0,24.34,24.35H197.44a10.59,10.59,0,0,0,1.5-.11H611.73a24.62,24.62,0,0,0,24.62-24.62V69.56A24.63,24.63,0,0,0,611.73,44.93Z" transform="translate(-51 -28.57)" opacity="0.69" fill="url(#linear-gradient-35)"/>
            <path d="M610.81,43.91H90.41a25.32,25.32,0,0,0-6.2.79A24.41,24.41,0,0,0,65.79,68.32v57.84a24.34,24.34,0,0,0,24.33,24.35h106.4a10.59,10.59,0,0,0,1.5-.11H610.81a24.62,24.62,0,0,0,24.62-24.62V68.54A24.63,24.63,0,0,0,610.81,43.91Z" transform="translate(-51 -28.57)" opacity="0.71" fill="url(#linear-gradient-36)"/>
            <path d="M609.89,42.9H89.49a25.32,25.32,0,0,0-6.2.78A24.41,24.41,0,0,0,64.87,67.3v57.84A24.34,24.34,0,0,0,89.2,149.49H195.6a10.59,10.59,0,0,0,1.5-.11H609.89a24.62,24.62,0,0,0,24.62-24.62V67.52A24.62,24.62,0,0,0,609.89,42.9Z" transform="translate(-51 -28.57)" opacity="0.73" fill="url(#linear-gradient-37)"/>
            <path d="M609,41.88H88.56a25.23,25.23,0,0,0-6.19.78A24.42,24.42,0,0,0,63.94,66.28v57.84a24.35,24.35,0,0,0,24.34,24.35h106.4a10.59,10.59,0,0,0,1.5-.11H609a24.62,24.62,0,0,0,24.62-24.62V66.5A24.62,24.62,0,0,0,609,41.88Z" transform="translate(-51 -28.57)" opacity="0.75" fill="url(#linear-gradient-38)"/>
            <path d="M608.05,40.86H87.64a25.23,25.23,0,0,0-6.19.78A24.42,24.42,0,0,0,63,65.26V123.1a24.35,24.35,0,0,0,24.34,24.35h106.4a10.59,10.59,0,0,0,1.5-.11H608.05a24.62,24.62,0,0,0,24.62-24.62V65.48A24.62,24.62,0,0,0,608.05,40.86Z" transform="translate(-51 -28.57)" opacity="0.76" fill="url(#linear-gradient-39)"/>
            <path d="M607.12,39.84H86.72a25.23,25.23,0,0,0-6.19.78A24.41,24.41,0,0,0,62.1,64.24v57.84a24.35,24.35,0,0,0,24.34,24.35h106.4a10.7,10.7,0,0,0,1.5-.11H607.12a24.63,24.63,0,0,0,24.63-24.62V64.46A24.63,24.63,0,0,0,607.12,39.84Z" transform="translate(-51 -28.57)" opacity="0.78" fill="url(#linear-gradient-40)"/>
            <path d="M606.2,38.82H85.8a25.38,25.38,0,0,0-6.2.78A24.41,24.41,0,0,0,61.18,63.22v57.84a24.34,24.34,0,0,0,24.34,24.35h106.4a10.56,10.56,0,0,0,1.49-.11H606.2a24.62,24.62,0,0,0,24.62-24.62V63.44A24.62,24.62,0,0,0,606.2,38.82Z" transform="translate(-51 -28.57)" opacity="0.8" fill="url(#linear-gradient-41)"/>
            <path d="M605.28,37.8H84.88a25.32,25.32,0,0,0-6.2.78A24.41,24.41,0,0,0,60.26,62.21V120a24.34,24.34,0,0,0,24.33,24.35H191a10.59,10.59,0,0,0,1.5-.11H605.28a24.62,24.62,0,0,0,24.62-24.62V62.42A24.62,24.62,0,0,0,605.28,37.8Z" transform="translate(-51 -28.57)" opacity="0.82" fill="url(#linear-gradient-42)"/>
            <path d="M604.36,36.78H84a25.32,25.32,0,0,0-6.2.78A24.41,24.41,0,0,0,59.34,61.19V119a24.34,24.34,0,0,0,24.33,24.35h106.4a12.32,12.32,0,0,0,1.5-.1H604.36A24.63,24.63,0,0,0,629,118.64V61.4A24.62,24.62,0,0,0,604.36,36.78Z" transform="translate(-51 -28.57)" opacity="0.84" fill="url(#linear-gradient-43)"/>
            <path d="M603.44,35.76H83a25.32,25.32,0,0,0-6.2.78A24.42,24.42,0,0,0,58.41,60.17V118a24.35,24.35,0,0,0,24.34,24.35h106.4a12.32,12.32,0,0,0,1.5-.1H603.44a24.63,24.63,0,0,0,24.62-24.63V60.38A24.62,24.62,0,0,0,603.44,35.76Z" transform="translate(-51 -28.57)" opacity="0.86" fill="url(#linear-gradient-44)"/>
            <path d="M602.52,34.74H82.11a24.77,24.77,0,0,0-6.19.79A24.41,24.41,0,0,0,57.49,59.15V117a24.35,24.35,0,0,0,24.34,24.35h106.4a12.32,12.32,0,0,0,1.5-.1H602.52a24.63,24.63,0,0,0,24.62-24.63V59.36A24.62,24.62,0,0,0,602.52,34.74Z" transform="translate(-51 -28.57)" opacity="0.88" fill="url(#linear-gradient-45)"/>
            <path d="M601.6,33.72H81.19a24.77,24.77,0,0,0-6.19.79A24.4,24.4,0,0,0,56.57,58.13V116a24.34,24.34,0,0,0,24.34,24.34h106.4a12.46,12.46,0,0,0,1.5-.1H601.6a24.63,24.63,0,0,0,24.62-24.62V58.34A24.62,24.62,0,0,0,601.6,33.72Z" transform="translate(-51 -28.57)" opacity="0.9" fill="url(#linear-gradient-46)"/>
            <path d="M600.67,32.7H80.27a24.77,24.77,0,0,0-6.19.79A24.4,24.4,0,0,0,55.65,57.11V115A24.34,24.34,0,0,0,80,139.29h106.4a12.16,12.16,0,0,0,1.49-.1H600.67a24.62,24.62,0,0,0,24.62-24.62V57.32A24.62,24.62,0,0,0,600.67,32.7Z" transform="translate(-51 -28.57)" opacity="0.92" fill="url(#linear-gradient-47)"/>
            <path d="M599.75,31.68H79.35a24.9,24.9,0,0,0-6.2.79A24.4,24.4,0,0,0,54.73,56.09v57.84a24.34,24.34,0,0,0,24.34,24.34H185.46a12.32,12.32,0,0,0,1.5-.1H599.75a24.62,24.62,0,0,0,24.62-24.62V56.3A24.62,24.62,0,0,0,599.75,31.68Z" transform="translate(-51 -28.57)" opacity="0.94" fill="url(#linear-gradient-48)"/>
            <path d="M598.83,30.66H78.43a24.84,24.84,0,0,0-6.2.79A24.4,24.4,0,0,0,53.81,55.07v57.84a24.33,24.33,0,0,0,24.33,24.34h106.4a12.32,12.32,0,0,0,1.5-.1H598.83a24.62,24.62,0,0,0,24.62-24.62V55.28A24.62,24.62,0,0,0,598.83,30.66Z" transform="translate(-51 -28.57)" opacity="0.96" fill="url(#linear-gradient-49)"/>
            <path d="M597.91,29.64H77.51a24.84,24.84,0,0,0-6.2.79A24.41,24.41,0,0,0,52.88,54.05v57.84a24.34,24.34,0,0,0,24.34,24.34h106.4a12.32,12.32,0,0,0,1.5-.1H597.91a24.62,24.62,0,0,0,24.62-24.62V54.26A24.62,24.62,0,0,0,597.91,29.64Z" transform="translate(-51 -28.57)" opacity="0.98" fill="url(#linear-gradient-50)"/>
            <path d="M597,28.62H76.58A24.62,24.62,0,0,0,52,53v57.84A24.35,24.35,0,0,0,76.3,135.22H182.7a12.31,12.31,0,0,0,1.5-.11H597a24.62,24.62,0,0,0,24.62-24.62V53.24A24.62,24.62,0,0,0,597,28.62Z" transform="translate(-51 -28.57)" fill="#3d3d3d"/>
          </g>
          <g>
            <g>
              <path d="M596,28.67V135.16a24.62,24.62,0,0,0,24.62-24.62V53.29A24.62,24.62,0,0,0,596,28.67Z" transform="translate(-51 -28.57)" fill="url(#Degradado_sin_nombre_1415)"/>
              <path d="M75.62,28.67A24.62,24.62,0,0,0,51,53.29v57.25a24.62,24.62,0,0,0,24.62,24.62H596V28.67Z" transform="translate(-51 -28.57)" fill="url(#Degradado_sin_nombre_9)"/>
            </g>
            <path d="M200.23,81.21l-2.85-1.65a8,8,0,0,1-4-6.89V40.27a11.68,11.68,0,0,0-11.67-11.7H75.34A24.37,24.37,0,0,0,51,53v57.92a24.37,24.37,0,0,0,24.34,24.39h106.4a11.68,11.68,0,0,0,11.67-11.7V91.16a8,8,0,0,1,4-6.89l2.85-1.65A.81.81,0,0,0,200.23,81.21Z" transform="translate(-51 -28.57)" fill="url(#Degradado_sin_nombre_1415-2)"/>
            <g>
              <rect x="40.59" y="39.67" width="13.74" height="43.55" fill="#fff"/>
              <path d="M106.49,54.22a8,8,0,1,1-8-8A8,8,0,0,1,106.49,54.22Z" transform="translate(-51 -28.57)" fill="#fff" fill-rule="evenodd"/>
              <path d="M142.52,66.63c-9.31,0-13.28,4.82-14.42,6.6v-5H114.36v43.55H128.1V86.08s1.19-7.66,7.65-7.66,7.59,7,7.59,9V112h13.73V86.08C157.07,77.8,153.94,66.63,142.52,66.63Z" transform="translate(-51 -28.57)" fill="#fff" fill-rule="evenodd"/>
            </g>
          </g>
        </g>
        <text transform="translate(191.89 64.63)" font-size="34.35" fill="#4e4e4e" font-family="OpenSansLight-Italic, Open Sans" font-style="italic">Login With Linkedin</text>
      </g>
    </g>
  </g>
</svg>
