<svg xmlns="http://www.w3.org/2000/svg" xmlns:xlink="http://www.w3.org/1999/xlink" viewBox="0 0 618.61 158.59">
  <defs>
    <linearGradient id="Degradado_sin_nombre_1456" data-name="Degradado sin nombre 1456" x1="91.52" y1="137.01" x2="661.17" y2="137.01" gradientUnits="userSpaceOnUse">
      <stop offset="0" stop-color="#e6e6e5"/>
      <stop offset="1" stop-color="#ccc"/>
    </linearGradient>
    <linearGradient id="linear-gradient" x1="90.6" y1="135.99" x2="660.24" y2="135.99" gradientUnits="userSpaceOnUse">
      <stop offset="0" stop-color="#e2e2e1"/>
      <stop offset="1" stop-color="#c9c9c9"/>
    </linearGradient>
    <linearGradient id="linear-gradient-2" x1="89.68" y1="134.97" x2="659.32" y2="134.97" gradientUnits="userSpaceOnUse">
      <stop offset="0" stop-color="#dfdfdf"/>
      <stop offset="1" stop-color="#c7c7c7"/>
    </linearGradient>
    <linearGradient id="linear-gradient-3" x1="88.76" y1="133.95" x2="658.4" y2="133.95" gradientUnits="userSpaceOnUse">
      <stop offset="0" stop-color="#dcdcdc"/>
      <stop offset="1" stop-color="#c5c5c5"/>
    </linearGradient>
    <linearGradient id="linear-gradient-4" x1="87.83" y1="132.93" x2="657.48" y2="132.93" gradientUnits="userSpaceOnUse">
      <stop offset="0" stop-color="#dadada"/>
      <stop offset="1" stop-color="#c3c4c4"/>
    </linearGradient>
    <linearGradient id="linear-gradient-5" x1="86.91" y1="131.91" x2="656.56" y2="131.91" gradientUnits="userSpaceOnUse">
      <stop offset="0" stop-color="#d7d8d8"/>
      <stop offset="1" stop-color="#c2c2c2"/>
    </linearGradient>
    <linearGradient id="linear-gradient-6" x1="85.99" y1="130.89" x2="655.64" y2="130.89" gradientUnits="userSpaceOnUse">
      <stop offset="0" stop-color="#d5d5d6"/>
      <stop offset="1" stop-color="#c0c1c1"/>
    </linearGradient>
    <linearGradient id="linear-gradient-7" x1="85.07" y1="129.87" x2="654.71" y2="129.87" gradientUnits="userSpaceOnUse">
      <stop offset="0" stop-color="#d2d3d3"/>
      <stop offset="1" stop-color="#bebfbf"/>
    </linearGradient>
    <linearGradient id="linear-gradient-8" x1="84.15" y1="128.85" x2="653.79" y2="128.85" gradientUnits="userSpaceOnUse">
      <stop offset="0" stop-color="#d0d0d1"/>
      <stop offset="1" stop-color="#bdbdbd"/>
    </linearGradient>
    <linearGradient id="linear-gradient-9" x1="83.23" y1="127.84" x2="652.87" y2="127.84" gradientUnits="userSpaceOnUse">
      <stop offset="0" stop-color="#cdcecf"/>
      <stop offset="1" stop-color="#bbbcbc"/>
    </linearGradient>
    <linearGradient id="linear-gradient-10" x1="82.3" y1="126.82" x2="651.95" y2="126.82" gradientUnits="userSpaceOnUse">
      <stop offset="0" stop-color="#cbcccc"/>
      <stop offset="1" stop-color="#b9baba"/>
    </linearGradient>
    <linearGradient id="linear-gradient-11" x1="81.38" y1="125.8" x2="651.03" y2="125.8" gradientUnits="userSpaceOnUse">
      <stop offset="0" stop-color="#c8c9ca"/>
      <stop offset="1" stop-color="#b7b8b9"/>
    </linearGradient>
    <linearGradient id="linear-gradient-12" x1="80.46" y1="124.78" x2="650.11" y2="124.78" gradientUnits="userSpaceOnUse">
      <stop offset="0" stop-color="#c6c7c8"/>
      <stop offset="1" stop-color="#b5b6b7"/>
    </linearGradient>
    <linearGradient id="linear-gradient-13" x1="79.54" y1="123.76" x2="649.19" y2="123.76" gradientUnits="userSpaceOnUse">
      <stop offset="0" stop-color="#c3c4c5"/>
      <stop offset="1" stop-color="#b4b5b5"/>
    </linearGradient>
    <linearGradient id="linear-gradient-14" x1="78.62" y1="122.74" x2="648.26" y2="122.74" gradientUnits="userSpaceOnUse">
      <stop offset="0" stop-color="#c1c2c3"/>
      <stop offset="1" stop-color="#b2b3b3"/>
    </linearGradient>
    <linearGradient id="linear-gradient-15" x1="77.7" y1="121.72" x2="647.34" y2="121.72" gradientUnits="userSpaceOnUse">
      <stop offset="0" stop-color="#bebfc0"/>
      <stop offset="1" stop-color="#b0b1b2"/>
    </linearGradient>
    <linearGradient id="linear-gradient-16" x1="76.78" y1="120.7" x2="646.42" y2="120.7" gradientUnits="userSpaceOnUse">
      <stop offset="0" stop-color="#bcbdbe"/>
      <stop offset="1" stop-color="#aeafb0"/>
    </linearGradient>
    <linearGradient id="linear-gradient-17" x1="75.85" y1="119.68" x2="645.5" y2="119.68" gradientUnits="userSpaceOnUse">
      <stop offset="0" stop-color="#b9babc"/>
      <stop offset="1" stop-color="#acadae"/>
    </linearGradient>
    <linearGradient id="linear-gradient-18" x1="74.93" y1="118.66" x2="644.58" y2="118.66" gradientUnits="userSpaceOnUse">
      <stop offset="0" stop-color="#b6b8b9"/>
      <stop offset="1" stop-color="#aaabac"/>
    </linearGradient>
    <linearGradient id="linear-gradient-19" x1="74.01" y1="117.64" x2="643.66" y2="117.64" gradientUnits="userSpaceOnUse">
      <stop offset="0" stop-color="#b4b5b6"/>
      <stop offset="1" stop-color="#a8a9aa"/>
    </linearGradient>
    <linearGradient id="linear-gradient-20" x1="73.09" y1="116.62" x2="642.73" y2="116.62" gradientUnits="userSpaceOnUse">
      <stop offset="0" stop-color="#b1b2b4"/>
      <stop offset="1" stop-color="#a6a7a8"/>
    </linearGradient>
    <linearGradient id="linear-gradient-21" x1="72.17" y1="115.6" x2="641.81" y2="115.6" gradientUnits="userSpaceOnUse">
      <stop offset="0" stop-color="#aeb0b1"/>
      <stop offset="1" stop-color="#a4a5a6"/>
    </linearGradient>
    <linearGradient id="linear-gradient-22" x1="71.25" y1="114.58" x2="640.89" y2="114.58" gradientUnits="userSpaceOnUse">
      <stop offset="0" stop-color="#acadaf"/>
      <stop offset="1" stop-color="#a1a3a4"/>
    </linearGradient>
    <linearGradient id="linear-gradient-23" x1="70.32" y1="113.56" x2="639.97" y2="113.56" gradientUnits="userSpaceOnUse">
      <stop offset="0" stop-color="#a9aaac"/>
      <stop offset="1" stop-color="#9fa1a2"/>
    </linearGradient>
    <linearGradient id="linear-gradient-24" x1="69.4" y1="112.54" x2="639.05" y2="112.54" gradientUnits="userSpaceOnUse">
      <stop offset="0" stop-color="#a6a8aa"/>
      <stop offset="1" stop-color="#9d9ea0"/>
    </linearGradient>
    <linearGradient id="linear-gradient-25" x1="68.48" y1="111.52" x2="638.13" y2="111.52" gradientUnits="userSpaceOnUse">
      <stop offset="0" stop-color="#a4a5a7"/>
      <stop offset="1" stop-color="#9b9c9e"/>
    </linearGradient>
    <linearGradient id="linear-gradient-26" x1="67.56" y1="110.5" x2="637.2" y2="110.5" gradientUnits="userSpaceOnUse">
      <stop offset="0" stop-color="#a1a3a5"/>
      <stop offset="1" stop-color="#999a9c"/>
    </linearGradient>
    <linearGradient id="linear-gradient-27" x1="66.64" y1="109.48" x2="636.28" y2="109.48" gradientUnits="userSpaceOnUse">
      <stop offset="0" stop-color="#9fa0a2"/>
      <stop offset="1" stop-color="#97989a"/>
    </linearGradient>
    <linearGradient id="linear-gradient-28" x1="65.72" y1="108.46" x2="635.36" y2="108.46" gradientUnits="userSpaceOnUse">
      <stop offset="0" stop-color="#9c9d9f"/>
      <stop offset="1" stop-color="#959697"/>
    </linearGradient>
    <linearGradient id="linear-gradient-29" x1="64.79" y1="107.44" x2="634.44" y2="107.44" gradientUnits="userSpaceOnUse">
      <stop offset="0" stop-color="#999b9d"/>
      <stop offset="1" stop-color="#929495"/>
    </linearGradient>
    <linearGradient id="linear-gradient-30" x1="63.87" y1="106.42" x2="633.52" y2="106.42" gradientUnits="userSpaceOnUse">
      <stop offset="0" stop-color="#97989a"/>
      <stop offset="1" stop-color="#909193"/>
    </linearGradient>
    <linearGradient id="linear-gradient-31" x1="62.95" y1="105.4" x2="632.6" y2="105.4" gradientUnits="userSpaceOnUse">
      <stop offset="0" stop-color="#949698"/>
      <stop offset="1" stop-color="#8e8f91"/>
    </linearGradient>
    <linearGradient id="linear-gradient-32" x1="62.03" y1="104.38" x2="631.68" y2="104.38" gradientUnits="userSpaceOnUse">
      <stop offset="0" stop-color="#929395"/>
      <stop offset="1" stop-color="#8c8d8f"/>
    </linearGradient>
    <linearGradient id="linear-gradient-33" x1="61.11" y1="103.36" x2="630.75" y2="103.36" gradientUnits="userSpaceOnUse">
      <stop offset="0" stop-color="#8f9193"/>
      <stop offset="1" stop-color="#8a8b8d"/>
    </linearGradient>
    <linearGradient id="linear-gradient-34" x1="60.19" y1="102.34" x2="629.83" y2="102.34" gradientUnits="userSpaceOnUse">
      <stop offset="0" stop-color="#8c8e90"/>
      <stop offset="1" stop-color="#87898b"/>
    </linearGradient>
    <linearGradient id="linear-gradient-35" x1="59.27" y1="101.33" x2="628.91" y2="101.33" gradientUnits="userSpaceOnUse">
      <stop offset="0" stop-color="#8a8c8e"/>
      <stop offset="1" stop-color="#858788"/>
    </linearGradient>
    <linearGradient id="linear-gradient-36" x1="58.34" y1="100.31" x2="627.99" y2="100.31" gradientUnits="userSpaceOnUse">
      <stop offset="0" stop-color="#87898b"/>
      <stop offset="1" stop-color="#838486"/>
    </linearGradient>
    <linearGradient id="linear-gradient-37" x1="57.42" y1="99.29" x2="627.07" y2="99.29" gradientUnits="userSpaceOnUse">
      <stop offset="0" stop-color="#858689"/>
      <stop offset="1" stop-color="#818284"/>
    </linearGradient>
    <linearGradient id="linear-gradient-38" x1="56.5" y1="98.27" x2="626.15" y2="98.27" gradientUnits="userSpaceOnUse">
      <stop offset="0" stop-color="#828486"/>
      <stop offset="1" stop-color="#7f8082"/>
    </linearGradient>
    <linearGradient id="linear-gradient-39" x1="55.58" y1="97.25" x2="625.22" y2="97.25" gradientUnits="userSpaceOnUse">
      <stop offset="0" stop-color="#808184"/>
      <stop offset="1" stop-color="#7d7e80"/>
    </linearGradient>
    <linearGradient id="linear-gradient-40" x1="54.66" y1="96.23" x2="624.3" y2="96.23" gradientUnits="userSpaceOnUse">
      <stop offset="0" stop-color="#7d7f81"/>
      <stop offset="1" stop-color="#7a7b7d"/>
    </linearGradient>
    <linearGradient id="linear-gradient-41" x1="53.74" y1="95.21" x2="623.38" y2="95.21" gradientUnits="userSpaceOnUse">
      <stop offset="0" stop-color="#7b7c7f"/>
      <stop offset="1" stop-color="#78797b"/>
    </linearGradient>
    <linearGradient id="linear-gradient-42" x1="52.81" y1="94.19" x2="622.46" y2="94.19" gradientUnits="userSpaceOnUse">
      <stop offset="0" stop-color="#787a7c"/>
      <stop offset="1" stop-color="#767779"/>
    </linearGradient>
    <linearGradient id="linear-gradient-43" x1="51.89" y1="93.17" x2="621.54" y2="93.17" gradientUnits="userSpaceOnUse">
      <stop offset="0" stop-color="#76777a"/>
      <stop offset="1" stop-color="#747577"/>
    </linearGradient>
    <linearGradient id="linear-gradient-44" x1="50.97" y1="92.15" x2="620.62" y2="92.15" gradientUnits="userSpaceOnUse">
      <stop offset="0" stop-color="#737577"/>
      <stop offset="1" stop-color="#717275"/>
    </linearGradient>
    <linearGradient id="linear-gradient-45" x1="50.05" y1="91.13" x2="619.7" y2="91.13" gradientUnits="userSpaceOnUse">
      <stop offset="0" stop-color="#717274"/>
      <stop offset="1" stop-color="#6f7072"/>
    </linearGradient>
    <linearGradient id="linear-gradient-46" x1="49.13" y1="90.11" x2="618.77" y2="90.11" gradientUnits="userSpaceOnUse">
      <stop offset="0" stop-color="#6e7072"/>
      <stop offset="1" stop-color="#6d6e70"/>
    </linearGradient>
    <linearGradient id="linear-gradient-47" x1="48.21" y1="89.09" x2="617.85" y2="89.09" gradientUnits="userSpaceOnUse">
      <stop offset="0" stop-color="#6c6d6f"/>
      <stop offset="1" stop-color="#6a6b6d"/>
    </linearGradient>
    <linearGradient id="linear-gradient-48" x1="47.29" y1="88.07" x2="616.93" y2="88.07" gradientUnits="userSpaceOnUse">
      <stop offset="0" stop-color="#696a6c"/>
      <stop offset="1" stop-color="#68696b"/>
    </linearGradient>
    <linearGradient id="linear-gradient-49" x1="46.36" y1="87.05" x2="616.01" y2="87.05" gradientUnits="userSpaceOnUse">
      <stop offset="0" stop-color="#66676a"/>
      <stop offset="1" stop-color="#656769"/>
    </linearGradient>
    <linearGradient id="linear-gradient-50" x1="45.44" y1="86.03" x2="615.09" y2="86.03" gradientUnits="userSpaceOnUse">
      <stop offset="0" stop-color="#636567"/>
      <stop offset="1" stop-color="#636466"/>
    </linearGradient>
    <linearGradient id="Degradado_sin_nombre_1409" data-name="Degradado sin nombre 1409" x1="587.58" y1="85.38" x2="612.2" y2="85.38" gradientUnits="userSpaceOnUse">
      <stop offset="0.04" stop-color="#83c3eb"/>
      <stop offset="0.35" stop-color="#86c5ec"/>
      <stop offset="0.62" stop-color="#91ccef"/>
      <stop offset="0.88" stop-color="#a2d8f5"/>
      <stop offset="0.99" stop-color="#addff8"/>
    </linearGradient>
    <linearGradient id="Degradado_sin_nombre_9" data-name="Degradado sin nombre 9" x1="481.55" y1="-73.89" x2="163" y2="244.66" gradientUnits="userSpaceOnUse">
      <stop offset="0" stop-color="#fff"/>
      <stop offset="0.52" stop-color="#fdfdfd"/>
      <stop offset="0.77" stop-color="#f6f6f5"/>
      <stop offset="0.97" stop-color="#e9e9e8"/>
      <stop offset="1" stop-color="#e6e6e5"/>
    </linearGradient>
    <linearGradient id="Degradado_sin_nombre_1409-2" x1="42.55" y1="85.39" x2="192.19" y2="85.39" xlink:href="#Degradado_sin_nombre_1409"/>
  </defs>
  <title>twitter</title>
  <g style="isolation: isolate">
    <g id="Layer_1" data-name="Layer 1">
      <g>
        <g>
          <g opacity="0.49" style="mix-blend-mode: multiply">
            <path d="M636.54,83.71H116.14a24.77,24.77,0,0,0-6.19.79,24.35,24.35,0,0,0-18.43,23.62V166a24.35,24.35,0,0,0,24.34,24.35h106.4a10.7,10.7,0,0,0,1.5-.11H636.54a24.63,24.63,0,0,0,24.63-24.62V108.34A24.63,24.63,0,0,0,636.54,83.71Z" transform="translate(-42.55 -31.71)" opacity="0" fill="url(#Degradado_sin_nombre_1456)"/>
            <path d="M635.62,82.69H115.22a25.38,25.38,0,0,0-6.2.79A24.41,24.41,0,0,0,90.6,107.1v57.84a24.34,24.34,0,0,0,24.34,24.35h106.4a10.56,10.56,0,0,0,1.49-.11H635.62a24.62,24.62,0,0,0,24.62-24.62V107.32A24.63,24.63,0,0,0,635.62,82.69Z" transform="translate(-42.55 -31.71)" opacity="0.02" fill="url(#linear-gradient)"/>
            <path d="M634.7,81.68H114.3a25.32,25.32,0,0,0-6.2.78,24.41,24.41,0,0,0-18.42,23.62v57.84A24.34,24.34,0,0,0,114,188.27h106.4a10.59,10.59,0,0,0,1.5-.11H634.7a24.62,24.62,0,0,0,24.62-24.62V106.3A24.62,24.62,0,0,0,634.7,81.68Z" transform="translate(-42.55 -31.71)" opacity="0.04" fill="url(#linear-gradient-2)"/>
            <path d="M633.78,80.66H113.38a25.32,25.32,0,0,0-6.2.78,24.41,24.41,0,0,0-18.42,23.62V162.9a24.34,24.34,0,0,0,24.33,24.35h106.4a10.59,10.59,0,0,0,1.5-.11H633.78a24.62,24.62,0,0,0,24.62-24.62V105.28A24.62,24.62,0,0,0,633.78,80.66Z" transform="translate(-42.55 -31.71)" opacity="0.06" fill="url(#linear-gradient-3)"/>
            <path d="M632.86,79.64H112.46a25.32,25.32,0,0,0-6.2.78A24.42,24.42,0,0,0,87.83,104v57.84a24.35,24.35,0,0,0,24.34,24.35h106.4a10.59,10.59,0,0,0,1.5-.11H632.86a24.62,24.62,0,0,0,24.62-24.62V104.26A24.62,24.62,0,0,0,632.86,79.64Z" transform="translate(-42.55 -31.71)" opacity="0.08" fill="url(#linear-gradient-4)"/>
            <path d="M631.94,78.62H111.53a25.23,25.23,0,0,0-6.19.78A24.42,24.42,0,0,0,86.91,103v57.84a24.35,24.35,0,0,0,24.34,24.35h106.4a10.59,10.59,0,0,0,1.5-.11H631.94a24.62,24.62,0,0,0,24.62-24.62V103.24A24.62,24.62,0,0,0,631.94,78.62Z" transform="translate(-42.55 -31.71)" opacity="0.1" fill="url(#linear-gradient-5)"/>
            <path d="M631,77.6H110.61a25.23,25.23,0,0,0-6.19.78A24.41,24.41,0,0,0,86,102v57.84a24.35,24.35,0,0,0,24.34,24.35h106.4a10.7,10.7,0,0,0,1.5-.11H631a24.62,24.62,0,0,0,24.62-24.62V102.22A24.62,24.62,0,0,0,631,77.6Z" transform="translate(-42.55 -31.71)" opacity="0.12" fill="url(#linear-gradient-6)"/>
            <path d="M630.09,76.58H109.69a25.23,25.23,0,0,0-6.19.78A24.41,24.41,0,0,0,85.07,101v57.83a24.35,24.35,0,0,0,24.34,24.35h106.4a10.45,10.45,0,0,0,1.49-.11H630.09a24.62,24.62,0,0,0,24.62-24.62V101.2A24.62,24.62,0,0,0,630.09,76.58Z" transform="translate(-42.55 -31.71)" opacity="0.14" fill="url(#linear-gradient-7)"/>
            <path d="M629.17,75.56H108.77a25.38,25.38,0,0,0-6.2.78A24.41,24.41,0,0,0,84.15,100V157.8a24.34,24.34,0,0,0,24.34,24.35H214.88a12.32,12.32,0,0,0,1.5-.1H629.17a24.63,24.63,0,0,0,24.62-24.63V100.18A24.62,24.62,0,0,0,629.17,75.56Z" transform="translate(-42.55 -31.71)" opacity="0.16" fill="url(#linear-gradient-8)"/>
            <path d="M628.25,74.54H107.85a25.32,25.32,0,0,0-6.2.78A24.41,24.41,0,0,0,83.23,99v57.83a24.34,24.34,0,0,0,24.33,24.35H214a12.32,12.32,0,0,0,1.5-.1H628.25a24.63,24.63,0,0,0,24.62-24.63V99.16A24.62,24.62,0,0,0,628.25,74.54Z" transform="translate(-42.55 -31.71)" opacity="0.18" fill="url(#linear-gradient-9)"/>
            <path d="M627.33,73.52H106.93a24.84,24.84,0,0,0-6.2.79A24.41,24.41,0,0,0,82.3,97.93v57.83a24.35,24.35,0,0,0,24.34,24.35H213a12.32,12.32,0,0,0,1.5-.1H627.33A24.63,24.63,0,0,0,652,155.38V98.14A24.62,24.62,0,0,0,627.33,73.52Z" transform="translate(-42.55 -31.71)" opacity="0.2" fill="url(#linear-gradient-10)"/>
            <path d="M626.41,72.5H106a24.77,24.77,0,0,0-6.19.79A24.41,24.41,0,0,0,81.38,96.91v57.84a24.34,24.34,0,0,0,24.34,24.34h106.4a12.32,12.32,0,0,0,1.5-.1H626.41A24.62,24.62,0,0,0,651,154.37V97.12A24.62,24.62,0,0,0,626.41,72.5Z" transform="translate(-42.55 -31.71)" opacity="0.22" fill="url(#linear-gradient-11)"/>
            <path d="M625.49,71.48H105.08a24.77,24.77,0,0,0-6.19.79A24.41,24.41,0,0,0,80.46,95.89v57.84a24.34,24.34,0,0,0,24.34,24.34H211.2a12.32,12.32,0,0,0,1.5-.1H625.49a24.63,24.63,0,0,0,24.62-24.62V96.1A24.62,24.62,0,0,0,625.49,71.48Z" transform="translate(-42.55 -31.71)" opacity="0.24" fill="url(#linear-gradient-12)"/>
            <path d="M624.56,70.46H104.16a24.77,24.77,0,0,0-6.19.79A24.4,24.4,0,0,0,79.54,94.87v57.84a24.34,24.34,0,0,0,24.34,24.34h106.4a12.46,12.46,0,0,0,1.5-.1H624.56a24.63,24.63,0,0,0,24.63-24.62V95.08A24.63,24.63,0,0,0,624.56,70.46Z" transform="translate(-42.55 -31.71)" opacity="0.25" fill="url(#linear-gradient-13)"/>
            <path d="M623.64,69.44H103.24a24.9,24.9,0,0,0-6.2.79A24.4,24.4,0,0,0,78.62,93.85v57.84A24.34,24.34,0,0,0,103,176H209.35a12.32,12.32,0,0,0,1.5-.1H623.64a24.62,24.62,0,0,0,24.62-24.62V94.06A24.62,24.62,0,0,0,623.64,69.44Z" transform="translate(-42.55 -31.71)" opacity="0.27" fill="url(#linear-gradient-14)"/>
            <path d="M622.72,68.42H102.32a24.84,24.84,0,0,0-6.2.79A24.4,24.4,0,0,0,77.7,92.83v57.84A24.33,24.33,0,0,0,102,175h106.4a12.32,12.32,0,0,0,1.5-.1H622.72a24.62,24.62,0,0,0,24.62-24.62V93A24.62,24.62,0,0,0,622.72,68.42Z" transform="translate(-42.55 -31.71)" opacity="0.29" fill="url(#linear-gradient-15)"/>
            <path d="M621.8,67.4H101.4a24.84,24.84,0,0,0-6.2.79A24.4,24.4,0,0,0,76.78,91.81v57.84A24.34,24.34,0,0,0,101.11,174h106.4a12.31,12.31,0,0,0,1.5-.11H621.8a24.62,24.62,0,0,0,24.62-24.62V92A24.62,24.62,0,0,0,621.8,67.4Z" transform="translate(-42.55 -31.71)" opacity="0.31" fill="url(#linear-gradient-16)"/>
            <path d="M620.88,66.38H100.47a24.77,24.77,0,0,0-6.19.79A24.41,24.41,0,0,0,75.85,90.79v57.84A24.35,24.35,0,0,0,100.19,173h106.4a12.31,12.31,0,0,0,1.5-.11H620.88a24.62,24.62,0,0,0,24.62-24.62V91A24.62,24.62,0,0,0,620.88,66.38Z" transform="translate(-42.55 -31.71)" opacity="0.33" fill="url(#linear-gradient-17)"/>
            <path d="M620,65.36H99.55a24.77,24.77,0,0,0-6.19.79A24.41,24.41,0,0,0,74.93,89.77v57.84A24.35,24.35,0,0,0,99.27,172h106.4a12.31,12.31,0,0,0,1.5-.11H620a24.62,24.62,0,0,0,24.62-24.62V90A24.62,24.62,0,0,0,620,65.36Z" transform="translate(-42.55 -31.71)" opacity="0.35" fill="url(#linear-gradient-18)"/>
            <path d="M619,64.34H98.63a24.77,24.77,0,0,0-6.19.79A24.4,24.4,0,0,0,74,88.75v57.84a24.35,24.35,0,0,0,24.34,24.35h106.4a12.46,12.46,0,0,0,1.5-.11H619a24.63,24.63,0,0,0,24.63-24.62V89A24.63,24.63,0,0,0,619,64.34Z" transform="translate(-42.55 -31.71)" opacity="0.37" fill="url(#linear-gradient-19)"/>
            <path d="M618.11,63.32H97.71a24.9,24.9,0,0,0-6.2.79A24.4,24.4,0,0,0,73.09,87.73v57.84a24.35,24.35,0,0,0,24.34,24.35h106.4a12.29,12.29,0,0,0,1.49-.11H618.11a24.62,24.62,0,0,0,24.62-24.62V87.94A24.62,24.62,0,0,0,618.11,63.32Z" transform="translate(-42.55 -31.71)" opacity="0.39" fill="url(#linear-gradient-20)"/>
            <path d="M617.19,62.3H96.79a25.38,25.38,0,0,0-6.2.79A24.4,24.4,0,0,0,72.17,86.71v57.84A24.34,24.34,0,0,0,96.5,168.9H202.9a12.31,12.31,0,0,0,1.5-.11H617.19a24.62,24.62,0,0,0,24.62-24.62V86.92A24.62,24.62,0,0,0,617.19,62.3Z" transform="translate(-42.55 -31.71)" opacity="0.41" fill="url(#linear-gradient-21)"/>
            <path d="M616.27,61.28H95.87a25.32,25.32,0,0,0-6.2.79A24.4,24.4,0,0,0,71.25,85.69v57.84a24.34,24.34,0,0,0,24.33,24.35H202a12.31,12.31,0,0,0,1.5-.11H616.27a24.62,24.62,0,0,0,24.62-24.62V85.9A24.62,24.62,0,0,0,616.27,61.28Z" transform="translate(-42.55 -31.71)" opacity="0.43" fill="url(#linear-gradient-22)"/>
            <path d="M615.35,60.26H95a25.32,25.32,0,0,0-6.2.79A24.41,24.41,0,0,0,70.32,84.67v57.84a24.35,24.35,0,0,0,24.34,24.35h106.4a12.31,12.31,0,0,0,1.5-.11H615.35A24.62,24.62,0,0,0,640,142.13V84.88A24.62,24.62,0,0,0,615.35,60.26Z" transform="translate(-42.55 -31.71)" opacity="0.45" fill="url(#linear-gradient-23)"/>
            <path d="M614.43,59.24H94a25.24,25.24,0,0,0-6.19.79A24.41,24.41,0,0,0,69.4,83.65v57.84a24.35,24.35,0,0,0,24.34,24.35h106.4a12.31,12.31,0,0,0,1.5-.11H614.43a24.62,24.62,0,0,0,24.62-24.62V83.86A24.63,24.63,0,0,0,614.43,59.24Z" transform="translate(-42.55 -31.71)" opacity="0.47" fill="url(#linear-gradient-24)"/>
            <path d="M613.51,58.22H93.1a25.24,25.24,0,0,0-6.19.79A24.42,24.42,0,0,0,68.48,82.63v57.84a24.35,24.35,0,0,0,24.34,24.35h106.4a10.7,10.7,0,0,0,1.5-.11H613.51a24.62,24.62,0,0,0,24.62-24.62V82.85A24.63,24.63,0,0,0,613.51,58.22Z" transform="translate(-42.55 -31.71)" opacity="0.49" fill="url(#linear-gradient-25)"/>
            <path d="M612.58,57.2H92.18A25.24,25.24,0,0,0,86,58,24.41,24.41,0,0,0,67.56,81.61v57.84A24.35,24.35,0,0,0,91.9,163.8H198.3a10.7,10.7,0,0,0,1.5-.11H612.58a24.62,24.62,0,0,0,24.62-24.62V81.83A24.63,24.63,0,0,0,612.58,57.2Z" transform="translate(-42.55 -31.71)" opacity="0.51" fill="url(#linear-gradient-26)"/>
            <path d="M611.66,56.18H91.26a25.38,25.38,0,0,0-6.2.79A24.41,24.41,0,0,0,66.64,80.59v57.84A24.34,24.34,0,0,0,91,162.78H197.37a10.59,10.59,0,0,0,1.5-.11H611.66a24.62,24.62,0,0,0,24.62-24.62V80.81A24.63,24.63,0,0,0,611.66,56.18Z" transform="translate(-42.55 -31.71)" opacity="0.53" fill="url(#linear-gradient-27)"/>
            <path d="M610.74,55.17H90.34a25.32,25.32,0,0,0-6.2.78A24.41,24.41,0,0,0,65.72,79.57v57.84a24.34,24.34,0,0,0,24.33,24.35h106.4a10.59,10.59,0,0,0,1.5-.11H610.74A24.62,24.62,0,0,0,635.36,137V79.79A24.62,24.62,0,0,0,610.74,55.17Z" transform="translate(-42.55 -31.71)" opacity="0.55" fill="url(#linear-gradient-28)"/>
            <path d="M609.82,54.15H89.42a25.32,25.32,0,0,0-6.2.78A24.42,24.42,0,0,0,64.79,78.55v57.84a24.35,24.35,0,0,0,24.34,24.35h106.4a10.59,10.59,0,0,0,1.5-.11H609.82A24.62,24.62,0,0,0,634.44,136V78.77A24.62,24.62,0,0,0,609.82,54.15Z" transform="translate(-42.55 -31.71)" opacity="0.57" fill="url(#linear-gradient-29)"/>
            <path d="M608.9,53.13H88.49a25.23,25.23,0,0,0-6.19.78A24.42,24.42,0,0,0,63.87,77.53v57.84a24.35,24.35,0,0,0,24.34,24.35h106.4a10.59,10.59,0,0,0,1.5-.11H608.9A24.62,24.62,0,0,0,633.52,135V77.75A24.62,24.62,0,0,0,608.9,53.13Z" transform="translate(-42.55 -31.71)" opacity="0.59" fill="url(#linear-gradient-30)"/>
            <path d="M608,52.11H87.57a25.23,25.23,0,0,0-6.19.78A24.42,24.42,0,0,0,63,76.51v57.84A24.35,24.35,0,0,0,87.29,158.7h106.4a10.59,10.59,0,0,0,1.5-.11H608A24.62,24.62,0,0,0,632.6,134V76.73A24.62,24.62,0,0,0,608,52.11Z" transform="translate(-42.55 -31.71)" opacity="0.61" fill="url(#linear-gradient-31)"/>
            <path d="M607.05,51.09H86.65a25.23,25.23,0,0,0-6.19.78A24.41,24.41,0,0,0,62,75.5v57.83a24.35,24.35,0,0,0,24.34,24.35h106.4a10.7,10.7,0,0,0,1.5-.11H607.05A24.63,24.63,0,0,0,631.68,133V75.71A24.63,24.63,0,0,0,607.05,51.09Z" transform="translate(-42.55 -31.71)" opacity="0.63" fill="url(#linear-gradient-32)"/>
            <path d="M606.13,50.07H85.73a25.38,25.38,0,0,0-6.2.78A24.41,24.41,0,0,0,61.11,74.48v57.83a24.34,24.34,0,0,0,24.34,24.35h106.4a12.29,12.29,0,0,0,1.49-.1H606.13a24.63,24.63,0,0,0,24.62-24.63V74.69A24.62,24.62,0,0,0,606.13,50.07Z" transform="translate(-42.55 -31.71)" opacity="0.65" fill="url(#linear-gradient-33)"/>
            <path d="M605.21,49.05H84.81a25.32,25.32,0,0,0-6.2.78A24.41,24.41,0,0,0,60.19,73.46v57.83a24.34,24.34,0,0,0,24.33,24.35h106.4a12.32,12.32,0,0,0,1.5-.1H605.21a24.63,24.63,0,0,0,24.62-24.63V73.67A24.62,24.62,0,0,0,605.21,49.05Z" transform="translate(-42.55 -31.71)" opacity="0.67" fill="url(#linear-gradient-34)"/>
            <path d="M604.29,48H83.89a24.84,24.84,0,0,0-6.2.79A24.4,24.4,0,0,0,59.27,72.44v57.83A24.34,24.34,0,0,0,83.6,154.62H190a12.32,12.32,0,0,0,1.5-.1H604.29a24.63,24.63,0,0,0,24.62-24.63V72.65A24.62,24.62,0,0,0,604.29,48Z" transform="translate(-42.55 -31.71)" opacity="0.69" fill="url(#linear-gradient-35)"/>
            <path d="M603.37,47H83a24.77,24.77,0,0,0-6.19.79A24.41,24.41,0,0,0,58.34,71.42v57.83A24.35,24.35,0,0,0,82.68,153.6h106.4a12.32,12.32,0,0,0,1.5-.1H603.37A24.62,24.62,0,0,0,628,128.88V71.63A24.62,24.62,0,0,0,603.37,47Z" transform="translate(-42.55 -31.71)" opacity="0.71" fill="url(#linear-gradient-36)"/>
            <path d="M602.45,46H82a24.77,24.77,0,0,0-6.19.79A24.41,24.41,0,0,0,57.42,70.4v57.84a24.34,24.34,0,0,0,24.34,24.34h106.4a12.32,12.32,0,0,0,1.5-.1H602.45a24.63,24.63,0,0,0,24.62-24.62V70.61A24.62,24.62,0,0,0,602.45,46Z" transform="translate(-42.55 -31.71)" opacity="0.73" fill="url(#linear-gradient-37)"/>
            <path d="M601.53,45H81.12a24.77,24.77,0,0,0-6.19.79A24.4,24.4,0,0,0,56.5,69.38v57.84a24.34,24.34,0,0,0,24.34,24.34h106.4a12.46,12.46,0,0,0,1.5-.1H601.53a24.63,24.63,0,0,0,24.62-24.62V69.59A24.62,24.62,0,0,0,601.53,45Z" transform="translate(-42.55 -31.71)" opacity="0.75" fill="url(#linear-gradient-38)"/>
            <path d="M600.6,44H80.2a24.77,24.77,0,0,0-6.19.79A24.4,24.4,0,0,0,55.58,68.36V126.2a24.34,24.34,0,0,0,24.34,24.34h106.4a12.29,12.29,0,0,0,1.49-.1H600.6a24.62,24.62,0,0,0,24.62-24.62V68.57A24.62,24.62,0,0,0,600.6,44Z" transform="translate(-42.55 -31.71)" opacity="0.76" fill="url(#linear-gradient-39)"/>
            <path d="M599.68,42.93H79.28a24.9,24.9,0,0,0-6.2.79A24.4,24.4,0,0,0,54.66,67.34v57.84A24.34,24.34,0,0,0,79,149.52H185.39a12.32,12.32,0,0,0,1.5-.1H599.68A24.62,24.62,0,0,0,624.3,124.8V67.55A24.62,24.62,0,0,0,599.68,42.93Z" transform="translate(-42.55 -31.71)" opacity="0.78" fill="url(#linear-gradient-40)"/>
            <path d="M598.76,41.91H78.36a24.84,24.84,0,0,0-6.2.79A24.4,24.4,0,0,0,53.74,66.32v57.84a24.34,24.34,0,0,0,24.33,24.35h106.4a12.31,12.31,0,0,0,1.5-.11H598.76a24.62,24.62,0,0,0,24.62-24.62V66.53A24.62,24.62,0,0,0,598.76,41.91Z" transform="translate(-42.55 -31.71)" opacity="0.8" fill="url(#linear-gradient-41)"/>
            <path d="M597.84,40.89H77.44a24.84,24.84,0,0,0-6.2.79A24.41,24.41,0,0,0,52.81,65.3v57.84a24.35,24.35,0,0,0,24.34,24.35h106.4a12.31,12.31,0,0,0,1.5-.11H597.84a24.62,24.62,0,0,0,24.62-24.62V65.51A24.62,24.62,0,0,0,597.84,40.89Z" transform="translate(-42.55 -31.71)" opacity="0.82" fill="url(#linear-gradient-42)"/>
            <path d="M596.92,39.87H76.51a24.77,24.77,0,0,0-6.19.79A24.41,24.41,0,0,0,51.89,64.28v57.84a24.35,24.35,0,0,0,24.34,24.35h106.4a12.31,12.31,0,0,0,1.5-.11H596.92a24.62,24.62,0,0,0,24.62-24.62V64.49A24.62,24.62,0,0,0,596.92,39.87Z" transform="translate(-42.55 -31.71)" opacity="0.84" fill="url(#linear-gradient-43)"/>
            <path d="M596,38.85H75.59a24.77,24.77,0,0,0-6.19.79A24.41,24.41,0,0,0,51,63.26V121.1a24.35,24.35,0,0,0,24.34,24.35h106.4a12.31,12.31,0,0,0,1.5-.11H596a24.62,24.62,0,0,0,24.62-24.62V63.47A24.62,24.62,0,0,0,596,38.85Z" transform="translate(-42.55 -31.71)" opacity="0.86" fill="url(#linear-gradient-44)"/>
            <path d="M595.07,37.83H74.67a24.77,24.77,0,0,0-6.19.79A24.4,24.4,0,0,0,50.05,62.24v57.84a24.35,24.35,0,0,0,24.34,24.35h106.4a12.46,12.46,0,0,0,1.5-.11H595.07A24.63,24.63,0,0,0,619.7,119.7V62.45A24.63,24.63,0,0,0,595.07,37.83Z" transform="translate(-42.55 -31.71)" opacity="0.88" fill="url(#linear-gradient-45)"/>
            <path d="M594.15,36.81H73.75a25.38,25.38,0,0,0-6.2.79A24.4,24.4,0,0,0,49.13,61.22v57.84a24.34,24.34,0,0,0,24.34,24.35H179.86a12.31,12.31,0,0,0,1.5-.11H594.15a24.62,24.62,0,0,0,24.62-24.62V61.43A24.62,24.62,0,0,0,594.15,36.81Z" transform="translate(-42.55 -31.71)" opacity="0.9" fill="url(#linear-gradient-46)"/>
            <path d="M593.23,35.79H72.83a25.32,25.32,0,0,0-6.2.79A24.4,24.4,0,0,0,48.21,60.2V118a24.34,24.34,0,0,0,24.33,24.35h106.4a12.31,12.31,0,0,0,1.5-.11H593.23a24.62,24.62,0,0,0,24.62-24.62V60.41A24.62,24.62,0,0,0,593.23,35.79Z" transform="translate(-42.55 -31.71)" opacity="0.92" fill="url(#linear-gradient-47)"/>
            <path d="M592.31,34.77H71.91a25.32,25.32,0,0,0-6.2.79A24.4,24.4,0,0,0,47.29,59.18V117a24.34,24.34,0,0,0,24.33,24.35H178a12.31,12.31,0,0,0,1.5-.11H592.31a24.62,24.62,0,0,0,24.62-24.62V59.39A24.62,24.62,0,0,0,592.31,34.77Z" transform="translate(-42.55 -31.71)" opacity="0.94" fill="url(#linear-gradient-48)"/>
            <path d="M591.39,33.75H71a25.24,25.24,0,0,0-6.19.79A24.41,24.41,0,0,0,46.36,58.16V116A24.35,24.35,0,0,0,70.7,140.35H177.1a12.31,12.31,0,0,0,1.5-.11H591.39A24.62,24.62,0,0,0,616,115.62V58.37A24.62,24.62,0,0,0,591.39,33.75Z" transform="translate(-42.55 -31.71)" opacity="0.96" fill="url(#linear-gradient-49)"/>
            <path d="M590.47,32.73H70.06a25.24,25.24,0,0,0-6.19.79A24.41,24.41,0,0,0,45.44,57.14V115a24.35,24.35,0,0,0,24.34,24.35h106.4a12.31,12.31,0,0,0,1.5-.11H590.47a24.62,24.62,0,0,0,24.62-24.62V57.35A24.63,24.63,0,0,0,590.47,32.73Z" transform="translate(-42.55 -31.71)" opacity="0.98" fill="url(#linear-gradient-50)"/>
            <path d="M589.54,31.71H69.14A24.77,24.77,0,0,0,63,32.5,24.35,24.35,0,0,0,44.52,56.12V114a24.35,24.35,0,0,0,24.34,24.35h106.4a10.7,10.7,0,0,0,1.5-.11H589.54a24.63,24.63,0,0,0,24.63-24.62V56.34A24.63,24.63,0,0,0,589.54,31.71Z" transform="translate(-42.55 -31.71)" fill="#3d3d3d"/>
          </g>
          <g>
            <g>
              <path d="M587.58,32.14V138.63A24.62,24.62,0,0,0,612.2,114V56.76A24.62,24.62,0,0,0,587.58,32.14Z" transform="translate(-42.55 -31.71)" fill="url(#Degradado_sin_nombre_1409)"/>
              <path d="M67.17,32.14A24.62,24.62,0,0,0,42.55,56.76V114a24.63,24.63,0,0,0,24.62,24.62H587.58V32.14Z" transform="translate(-42.55 -31.71)" fill="url(#Degradado_sin_nombre_9)"/>
            </g>
            <path d="M191.79,84.68,188.93,83a8,8,0,0,1-4-6.89V43.74A11.68,11.68,0,0,0,173.29,32H66.89A24.36,24.36,0,0,0,42.55,56.42v57.93a24.36,24.36,0,0,0,24.34,24.38h106.4A11.67,11.67,0,0,0,185,127V94.63a8,8,0,0,1,4-6.89l2.86-1.65A.82.82,0,0,0,191.79,84.68Z" transform="translate(-42.55 -31.71)" fill="url(#Degradado_sin_nombre_1409-2)"/>
            <g>
              <polygon points="103.12 25.94 103.12 25.94 103.12 25.94 103.12 25.94" fill="#fff"/>
              <path d="M142.89,64.89a9.36,9.36,0,0,1-2.76.36l.05-.29c1.44-1.15,5.06-4.68,5.53-6.32.21-.72,0-1,0-1l-4.62,2-3.86,1.74h0A15.44,15.44,0,0,0,126,56.74c-8,0-14.56,5.69-14.56,12.72a18.63,18.63,0,0,0,.6,4.8c0,.36,0-.37,0,0C106.82,74.11,100.19,72,94.28,69,82.62,63.09,81.89,59,81.89,59c-1.83,2-2.77,8.39-.92,13.43,1.19,3.23,5.27,6.13,5.27,6.13h0A12.15,12.15,0,0,1,82.51,78a8.27,8.27,0,0,1-2.64-1.29C78.73,79.44,81,84.39,85,87.94a21,21,0,0,0,6.5,3.37l-6.56.19c-.37,6.37,13.37,10.16,13.37,10.16h0a22.44,22.44,0,0,1-13.71,5,26.14,26.14,0,0,1-7.49-1.09c6.62,5.45,15.12,9.21,24.37,8.72,24.53-1.28,38.38-22.37,39-43.08l0,0a17.13,17.13,0,0,0,3.61-3,25.91,25.91,0,0,0,4-5.33S144.43,64.46,142.89,64.89Z" transform="translate(-42.55 -31.71)" fill="#fff"/>
              <path d="M145.68,57.66c0,.39,0,0,0,0Z" transform="translate(-42.55 -31.71)" fill="#fff"/>
            </g>
          </g>
        </g>
        <text transform="translate(209.94 65.55)" font-size="34.35" fill="#4e4e4e" font-family="OpenSansLight-Italic, Open Sans" font-style="italic">Login With Twitter</text>
      </g>
    </g>
  </g>
</svg>
