<svg xmlns="http://www.w3.org/2000/svg" viewBox="0 0 59.5 66.8" enable-background="new 0 0 59.5 66.8"><path stroke="#47A40E" stroke-width="4" stroke-miterlimit="10" d="M3.8 51.4v-40c0-4.4 3.6-8 8-8h30c4.4 0 8 3.6 8 8v28.2c0 4.3-3.5 7.8-7.8 7.8h-30.2c-4.4 0-8 3.6-8 8" fill="none"/><path stroke="#47A40E" stroke-width="4" stroke-linecap="round" stroke-linejoin="round" stroke-miterlimit="10" d="M55.8 15.4v36c0 6.6-5.4 12-12 12h-32c-4.4 0-8-3.6-8-8v-4" fill="none"/><path fill="#47A40E" d="M18.1 20.9c0-1.4.2-2.7.6-3.8.4-1.1 1-2.1 1.8-2.9.8-.8 1.8-1.4 2.9-1.9 1.1-.4 2.4-.7 3.8-.7 1.2 0 2.3.2 3.3.5s1.9.8 2.6 1.5c.8.7 1.3 1.5 1.8 2.4.4 1 .7 2.1.7 3.3 0 .9-.1 1.7-.3 2.3-.2.7-.4 1.2-.8 1.7-.3.5-.7.9-1.1 1.3l-1.2 1.1c-.5.4-.9.8-1.3 1.2-.4.4-.8.8-1.1 1.3-.3.5-.5 1-.7 1.7-.2.6-.2 1.4-.2 2.3h-4.1c0-1.1.1-2.1.2-2.9.1-.8.3-1.5.6-2 .3-.6.6-1.1.9-1.6.4-.4.8-.9 1.3-1.3.4-.4.8-.7 1.2-1 .4-.3.7-.6 1-1 .3-.4.5-.8.7-1.2.2-.5.2-1 .2-1.6 0-.8-.1-1.4-.4-2s-.6-1-1-1.3c-.4-.3-.8-.6-1.2-.7-.4-.2-.8-.2-1.1-.2-1.6 0-2.8.5-3.5 1.6-.8 1-1.1 2.4-1.1 4.2h-4.5zm6.1 13.8h5.1v4.8h-5.1v-4.8z"/></svg>